%TF.GenerationSoftware,KiCad,Pcbnew,7.0.2*%
%TF.CreationDate,2023-06-11T16:55:18-04:00*%
%TF.ProjectId,Robocat Pin,526f626f-6361-4742-9050-696e2e6b6963,rev?*%
%TF.SameCoordinates,Original*%
%TF.FileFunction,Legend,Bot*%
%TF.FilePolarity,Positive*%
%FSLAX46Y46*%
G04 Gerber Fmt 4.6, Leading zero omitted, Abs format (unit mm)*
G04 Created by KiCad (PCBNEW 7.0.2) date 2023-06-11 16:55:18*
%MOMM*%
%LPD*%
G01*
G04 APERTURE LIST*
%ADD10C,0.150000*%
%ADD11C,0.120000*%
G04 APERTURE END LIST*
D10*
X41275000Y-32385000D02*
X64135000Y-32385000D01*
X64135000Y-40005000D01*
X41275000Y-40005000D01*
X41275000Y-32385000D01*
%TO.C,C1*%
X57068580Y-51065133D02*
X57116200Y-51017514D01*
X57116200Y-51017514D02*
X57163819Y-50874657D01*
X57163819Y-50874657D02*
X57163819Y-50779419D01*
X57163819Y-50779419D02*
X57116200Y-50636562D01*
X57116200Y-50636562D02*
X57020961Y-50541324D01*
X57020961Y-50541324D02*
X56925723Y-50493705D01*
X56925723Y-50493705D02*
X56735247Y-50446086D01*
X56735247Y-50446086D02*
X56592390Y-50446086D01*
X56592390Y-50446086D02*
X56401914Y-50493705D01*
X56401914Y-50493705D02*
X56306676Y-50541324D01*
X56306676Y-50541324D02*
X56211438Y-50636562D01*
X56211438Y-50636562D02*
X56163819Y-50779419D01*
X56163819Y-50779419D02*
X56163819Y-50874657D01*
X56163819Y-50874657D02*
X56211438Y-51017514D01*
X56211438Y-51017514D02*
X56259057Y-51065133D01*
X57163819Y-52017514D02*
X57163819Y-51446086D01*
X57163819Y-51731800D02*
X56163819Y-51731800D01*
X56163819Y-51731800D02*
X56306676Y-51636562D01*
X56306676Y-51636562D02*
X56401914Y-51541324D01*
X56401914Y-51541324D02*
X56449533Y-51446086D01*
%TO.C,U1*%
X51485895Y-59609780D02*
X51485895Y-58800257D01*
X51485895Y-58800257D02*
X51533514Y-58705019D01*
X51533514Y-58705019D02*
X51581133Y-58657400D01*
X51581133Y-58657400D02*
X51676371Y-58609780D01*
X51676371Y-58609780D02*
X51866847Y-58609780D01*
X51866847Y-58609780D02*
X51962085Y-58657400D01*
X51962085Y-58657400D02*
X52009704Y-58705019D01*
X52009704Y-58705019D02*
X52057323Y-58800257D01*
X52057323Y-58800257D02*
X52057323Y-59609780D01*
X53057323Y-58609780D02*
X52485895Y-58609780D01*
X52771609Y-58609780D02*
X52771609Y-59609780D01*
X52771609Y-59609780D02*
X52676371Y-59466923D01*
X52676371Y-59466923D02*
X52581133Y-59371685D01*
X52581133Y-59371685D02*
X52485895Y-59324066D01*
%TO.C,C4*%
X30468866Y-53688580D02*
X30516485Y-53736200D01*
X30516485Y-53736200D02*
X30659342Y-53783819D01*
X30659342Y-53783819D02*
X30754580Y-53783819D01*
X30754580Y-53783819D02*
X30897437Y-53736200D01*
X30897437Y-53736200D02*
X30992675Y-53640961D01*
X30992675Y-53640961D02*
X31040294Y-53545723D01*
X31040294Y-53545723D02*
X31087913Y-53355247D01*
X31087913Y-53355247D02*
X31087913Y-53212390D01*
X31087913Y-53212390D02*
X31040294Y-53021914D01*
X31040294Y-53021914D02*
X30992675Y-52926676D01*
X30992675Y-52926676D02*
X30897437Y-52831438D01*
X30897437Y-52831438D02*
X30754580Y-52783819D01*
X30754580Y-52783819D02*
X30659342Y-52783819D01*
X30659342Y-52783819D02*
X30516485Y-52831438D01*
X30516485Y-52831438D02*
X30468866Y-52879057D01*
X29611723Y-53117152D02*
X29611723Y-53783819D01*
X29849818Y-52736200D02*
X30087913Y-53450485D01*
X30087913Y-53450485D02*
X29468866Y-53450485D01*
%TO.C,R5*%
X50515180Y-51042866D02*
X50991371Y-51376199D01*
X50515180Y-51614294D02*
X51515180Y-51614294D01*
X51515180Y-51614294D02*
X51515180Y-51233342D01*
X51515180Y-51233342D02*
X51467561Y-51138104D01*
X51467561Y-51138104D02*
X51419942Y-51090485D01*
X51419942Y-51090485D02*
X51324704Y-51042866D01*
X51324704Y-51042866D02*
X51181847Y-51042866D01*
X51181847Y-51042866D02*
X51086609Y-51090485D01*
X51086609Y-51090485D02*
X51038990Y-51138104D01*
X51038990Y-51138104D02*
X50991371Y-51233342D01*
X50991371Y-51233342D02*
X50991371Y-51614294D01*
X51515180Y-50138104D02*
X51515180Y-50614294D01*
X51515180Y-50614294D02*
X51038990Y-50661913D01*
X51038990Y-50661913D02*
X51086609Y-50614294D01*
X51086609Y-50614294D02*
X51134228Y-50519056D01*
X51134228Y-50519056D02*
X51134228Y-50280961D01*
X51134228Y-50280961D02*
X51086609Y-50185723D01*
X51086609Y-50185723D02*
X51038990Y-50138104D01*
X51038990Y-50138104D02*
X50943752Y-50090485D01*
X50943752Y-50090485D02*
X50705657Y-50090485D01*
X50705657Y-50090485D02*
X50610419Y-50138104D01*
X50610419Y-50138104D02*
X50562800Y-50185723D01*
X50562800Y-50185723D02*
X50515180Y-50280961D01*
X50515180Y-50280961D02*
X50515180Y-50519056D01*
X50515180Y-50519056D02*
X50562800Y-50614294D01*
X50562800Y-50614294D02*
X50610419Y-50661913D01*
%TO.C,R3*%
X40848619Y-33869333D02*
X40372428Y-33536000D01*
X40848619Y-33297905D02*
X39848619Y-33297905D01*
X39848619Y-33297905D02*
X39848619Y-33678857D01*
X39848619Y-33678857D02*
X39896238Y-33774095D01*
X39896238Y-33774095D02*
X39943857Y-33821714D01*
X39943857Y-33821714D02*
X40039095Y-33869333D01*
X40039095Y-33869333D02*
X40181952Y-33869333D01*
X40181952Y-33869333D02*
X40277190Y-33821714D01*
X40277190Y-33821714D02*
X40324809Y-33774095D01*
X40324809Y-33774095D02*
X40372428Y-33678857D01*
X40372428Y-33678857D02*
X40372428Y-33297905D01*
X39848619Y-34202667D02*
X39848619Y-34821714D01*
X39848619Y-34821714D02*
X40229571Y-34488381D01*
X40229571Y-34488381D02*
X40229571Y-34631238D01*
X40229571Y-34631238D02*
X40277190Y-34726476D01*
X40277190Y-34726476D02*
X40324809Y-34774095D01*
X40324809Y-34774095D02*
X40420047Y-34821714D01*
X40420047Y-34821714D02*
X40658142Y-34821714D01*
X40658142Y-34821714D02*
X40753380Y-34774095D01*
X40753380Y-34774095D02*
X40801000Y-34726476D01*
X40801000Y-34726476D02*
X40848619Y-34631238D01*
X40848619Y-34631238D02*
X40848619Y-34345524D01*
X40848619Y-34345524D02*
X40801000Y-34250286D01*
X40801000Y-34250286D02*
X40753380Y-34202667D01*
%TO.C,R2*%
X38943619Y-36612533D02*
X38467428Y-36279200D01*
X38943619Y-36041105D02*
X37943619Y-36041105D01*
X37943619Y-36041105D02*
X37943619Y-36422057D01*
X37943619Y-36422057D02*
X37991238Y-36517295D01*
X37991238Y-36517295D02*
X38038857Y-36564914D01*
X38038857Y-36564914D02*
X38134095Y-36612533D01*
X38134095Y-36612533D02*
X38276952Y-36612533D01*
X38276952Y-36612533D02*
X38372190Y-36564914D01*
X38372190Y-36564914D02*
X38419809Y-36517295D01*
X38419809Y-36517295D02*
X38467428Y-36422057D01*
X38467428Y-36422057D02*
X38467428Y-36041105D01*
X38038857Y-36993486D02*
X37991238Y-37041105D01*
X37991238Y-37041105D02*
X37943619Y-37136343D01*
X37943619Y-37136343D02*
X37943619Y-37374438D01*
X37943619Y-37374438D02*
X37991238Y-37469676D01*
X37991238Y-37469676D02*
X38038857Y-37517295D01*
X38038857Y-37517295D02*
X38134095Y-37564914D01*
X38134095Y-37564914D02*
X38229333Y-37564914D01*
X38229333Y-37564914D02*
X38372190Y-37517295D01*
X38372190Y-37517295D02*
X38943619Y-36945867D01*
X38943619Y-36945867D02*
X38943619Y-37564914D01*
%TO.C,R1*%
X37145933Y-43479380D02*
X36812600Y-43955571D01*
X36574505Y-43479380D02*
X36574505Y-44479380D01*
X36574505Y-44479380D02*
X36955457Y-44479380D01*
X36955457Y-44479380D02*
X37050695Y-44431761D01*
X37050695Y-44431761D02*
X37098314Y-44384142D01*
X37098314Y-44384142D02*
X37145933Y-44288904D01*
X37145933Y-44288904D02*
X37145933Y-44146047D01*
X37145933Y-44146047D02*
X37098314Y-44050809D01*
X37098314Y-44050809D02*
X37050695Y-44003190D01*
X37050695Y-44003190D02*
X36955457Y-43955571D01*
X36955457Y-43955571D02*
X36574505Y-43955571D01*
X38098314Y-43479380D02*
X37526886Y-43479380D01*
X37812600Y-43479380D02*
X37812600Y-44479380D01*
X37812600Y-44479380D02*
X37717362Y-44336523D01*
X37717362Y-44336523D02*
X37622124Y-44241285D01*
X37622124Y-44241285D02*
X37526886Y-44193666D01*
%TO.C,C6*%
X66613066Y-67264380D02*
X66660685Y-67312000D01*
X66660685Y-67312000D02*
X66803542Y-67359619D01*
X66803542Y-67359619D02*
X66898780Y-67359619D01*
X66898780Y-67359619D02*
X67041637Y-67312000D01*
X67041637Y-67312000D02*
X67136875Y-67216761D01*
X67136875Y-67216761D02*
X67184494Y-67121523D01*
X67184494Y-67121523D02*
X67232113Y-66931047D01*
X67232113Y-66931047D02*
X67232113Y-66788190D01*
X67232113Y-66788190D02*
X67184494Y-66597714D01*
X67184494Y-66597714D02*
X67136875Y-66502476D01*
X67136875Y-66502476D02*
X67041637Y-66407238D01*
X67041637Y-66407238D02*
X66898780Y-66359619D01*
X66898780Y-66359619D02*
X66803542Y-66359619D01*
X66803542Y-66359619D02*
X66660685Y-66407238D01*
X66660685Y-66407238D02*
X66613066Y-66454857D01*
X65755923Y-66359619D02*
X65946399Y-66359619D01*
X65946399Y-66359619D02*
X66041637Y-66407238D01*
X66041637Y-66407238D02*
X66089256Y-66454857D01*
X66089256Y-66454857D02*
X66184494Y-66597714D01*
X66184494Y-66597714D02*
X66232113Y-66788190D01*
X66232113Y-66788190D02*
X66232113Y-67169142D01*
X66232113Y-67169142D02*
X66184494Y-67264380D01*
X66184494Y-67264380D02*
X66136875Y-67312000D01*
X66136875Y-67312000D02*
X66041637Y-67359619D01*
X66041637Y-67359619D02*
X65851161Y-67359619D01*
X65851161Y-67359619D02*
X65755923Y-67312000D01*
X65755923Y-67312000D02*
X65708304Y-67264380D01*
X65708304Y-67264380D02*
X65660685Y-67169142D01*
X65660685Y-67169142D02*
X65660685Y-66931047D01*
X65660685Y-66931047D02*
X65708304Y-66835809D01*
X65708304Y-66835809D02*
X65755923Y-66788190D01*
X65755923Y-66788190D02*
X65851161Y-66740571D01*
X65851161Y-66740571D02*
X66041637Y-66740571D01*
X66041637Y-66740571D02*
X66136875Y-66788190D01*
X66136875Y-66788190D02*
X66184494Y-66835809D01*
X66184494Y-66835809D02*
X66232113Y-66931047D01*
%TO.C,D1*%
X48312294Y-45471419D02*
X48312294Y-44471419D01*
X48312294Y-44471419D02*
X48074199Y-44471419D01*
X48074199Y-44471419D02*
X47931342Y-44519038D01*
X47931342Y-44519038D02*
X47836104Y-44614276D01*
X47836104Y-44614276D02*
X47788485Y-44709514D01*
X47788485Y-44709514D02*
X47740866Y-44899990D01*
X47740866Y-44899990D02*
X47740866Y-45042847D01*
X47740866Y-45042847D02*
X47788485Y-45233323D01*
X47788485Y-45233323D02*
X47836104Y-45328561D01*
X47836104Y-45328561D02*
X47931342Y-45423800D01*
X47931342Y-45423800D02*
X48074199Y-45471419D01*
X48074199Y-45471419D02*
X48312294Y-45471419D01*
X46788485Y-45471419D02*
X47359913Y-45471419D01*
X47074199Y-45471419D02*
X47074199Y-44471419D01*
X47074199Y-44471419D02*
X47169437Y-44614276D01*
X47169437Y-44614276D02*
X47264675Y-44709514D01*
X47264675Y-44709514D02*
X47359913Y-44757133D01*
%TO.C,R4*%
X35367933Y-39669380D02*
X35034600Y-40145571D01*
X34796505Y-39669380D02*
X34796505Y-40669380D01*
X34796505Y-40669380D02*
X35177457Y-40669380D01*
X35177457Y-40669380D02*
X35272695Y-40621761D01*
X35272695Y-40621761D02*
X35320314Y-40574142D01*
X35320314Y-40574142D02*
X35367933Y-40478904D01*
X35367933Y-40478904D02*
X35367933Y-40336047D01*
X35367933Y-40336047D02*
X35320314Y-40240809D01*
X35320314Y-40240809D02*
X35272695Y-40193190D01*
X35272695Y-40193190D02*
X35177457Y-40145571D01*
X35177457Y-40145571D02*
X34796505Y-40145571D01*
X36225076Y-40336047D02*
X36225076Y-39669380D01*
X35986981Y-40717000D02*
X35748886Y-40002714D01*
X35748886Y-40002714D02*
X36367933Y-40002714D01*
%TO.C,BT1*%
X70990609Y-52198685D02*
X71038228Y-52341542D01*
X71038228Y-52341542D02*
X71085847Y-52389161D01*
X71085847Y-52389161D02*
X71181085Y-52436780D01*
X71181085Y-52436780D02*
X71323942Y-52436780D01*
X71323942Y-52436780D02*
X71419180Y-52389161D01*
X71419180Y-52389161D02*
X71466800Y-52341542D01*
X71466800Y-52341542D02*
X71514419Y-52246304D01*
X71514419Y-52246304D02*
X71514419Y-51865352D01*
X71514419Y-51865352D02*
X70514419Y-51865352D01*
X70514419Y-51865352D02*
X70514419Y-52198685D01*
X70514419Y-52198685D02*
X70562038Y-52293923D01*
X70562038Y-52293923D02*
X70609657Y-52341542D01*
X70609657Y-52341542D02*
X70704895Y-52389161D01*
X70704895Y-52389161D02*
X70800133Y-52389161D01*
X70800133Y-52389161D02*
X70895371Y-52341542D01*
X70895371Y-52341542D02*
X70942990Y-52293923D01*
X70942990Y-52293923D02*
X70990609Y-52198685D01*
X70990609Y-52198685D02*
X70990609Y-51865352D01*
X70514419Y-52722495D02*
X70514419Y-53293923D01*
X71514419Y-53008209D02*
X70514419Y-53008209D01*
X71514419Y-54151066D02*
X71514419Y-53579638D01*
X71514419Y-53865352D02*
X70514419Y-53865352D01*
X70514419Y-53865352D02*
X70657276Y-53770114D01*
X70657276Y-53770114D02*
X70752514Y-53674876D01*
X70752514Y-53674876D02*
X70800133Y-53579638D01*
%TO.C,C5*%
X29605266Y-66839180D02*
X29652885Y-66886800D01*
X29652885Y-66886800D02*
X29795742Y-66934419D01*
X29795742Y-66934419D02*
X29890980Y-66934419D01*
X29890980Y-66934419D02*
X30033837Y-66886800D01*
X30033837Y-66886800D02*
X30129075Y-66791561D01*
X30129075Y-66791561D02*
X30176694Y-66696323D01*
X30176694Y-66696323D02*
X30224313Y-66505847D01*
X30224313Y-66505847D02*
X30224313Y-66362990D01*
X30224313Y-66362990D02*
X30176694Y-66172514D01*
X30176694Y-66172514D02*
X30129075Y-66077276D01*
X30129075Y-66077276D02*
X30033837Y-65982038D01*
X30033837Y-65982038D02*
X29890980Y-65934419D01*
X29890980Y-65934419D02*
X29795742Y-65934419D01*
X29795742Y-65934419D02*
X29652885Y-65982038D01*
X29652885Y-65982038D02*
X29605266Y-66029657D01*
X28700504Y-65934419D02*
X29176694Y-65934419D01*
X29176694Y-65934419D02*
X29224313Y-66410609D01*
X29224313Y-66410609D02*
X29176694Y-66362990D01*
X29176694Y-66362990D02*
X29081456Y-66315371D01*
X29081456Y-66315371D02*
X28843361Y-66315371D01*
X28843361Y-66315371D02*
X28748123Y-66362990D01*
X28748123Y-66362990D02*
X28700504Y-66410609D01*
X28700504Y-66410609D02*
X28652885Y-66505847D01*
X28652885Y-66505847D02*
X28652885Y-66743942D01*
X28652885Y-66743942D02*
X28700504Y-66839180D01*
X28700504Y-66839180D02*
X28748123Y-66886800D01*
X28748123Y-66886800D02*
X28843361Y-66934419D01*
X28843361Y-66934419D02*
X29081456Y-66934419D01*
X29081456Y-66934419D02*
X29176694Y-66886800D01*
X29176694Y-66886800D02*
X29224313Y-66839180D01*
%TO.C,C2*%
X43426980Y-71943933D02*
X43474600Y-71896314D01*
X43474600Y-71896314D02*
X43522219Y-71753457D01*
X43522219Y-71753457D02*
X43522219Y-71658219D01*
X43522219Y-71658219D02*
X43474600Y-71515362D01*
X43474600Y-71515362D02*
X43379361Y-71420124D01*
X43379361Y-71420124D02*
X43284123Y-71372505D01*
X43284123Y-71372505D02*
X43093647Y-71324886D01*
X43093647Y-71324886D02*
X42950790Y-71324886D01*
X42950790Y-71324886D02*
X42760314Y-71372505D01*
X42760314Y-71372505D02*
X42665076Y-71420124D01*
X42665076Y-71420124D02*
X42569838Y-71515362D01*
X42569838Y-71515362D02*
X42522219Y-71658219D01*
X42522219Y-71658219D02*
X42522219Y-71753457D01*
X42522219Y-71753457D02*
X42569838Y-71896314D01*
X42569838Y-71896314D02*
X42617457Y-71943933D01*
X42617457Y-72324886D02*
X42569838Y-72372505D01*
X42569838Y-72372505D02*
X42522219Y-72467743D01*
X42522219Y-72467743D02*
X42522219Y-72705838D01*
X42522219Y-72705838D02*
X42569838Y-72801076D01*
X42569838Y-72801076D02*
X42617457Y-72848695D01*
X42617457Y-72848695D02*
X42712695Y-72896314D01*
X42712695Y-72896314D02*
X42807933Y-72896314D01*
X42807933Y-72896314D02*
X42950790Y-72848695D01*
X42950790Y-72848695D02*
X43522219Y-72277267D01*
X43522219Y-72277267D02*
X43522219Y-72896314D01*
%TO.C,R6*%
X53309180Y-51042866D02*
X53785371Y-51376199D01*
X53309180Y-51614294D02*
X54309180Y-51614294D01*
X54309180Y-51614294D02*
X54309180Y-51233342D01*
X54309180Y-51233342D02*
X54261561Y-51138104D01*
X54261561Y-51138104D02*
X54213942Y-51090485D01*
X54213942Y-51090485D02*
X54118704Y-51042866D01*
X54118704Y-51042866D02*
X53975847Y-51042866D01*
X53975847Y-51042866D02*
X53880609Y-51090485D01*
X53880609Y-51090485D02*
X53832990Y-51138104D01*
X53832990Y-51138104D02*
X53785371Y-51233342D01*
X53785371Y-51233342D02*
X53785371Y-51614294D01*
X54309180Y-50185723D02*
X54309180Y-50376199D01*
X54309180Y-50376199D02*
X54261561Y-50471437D01*
X54261561Y-50471437D02*
X54213942Y-50519056D01*
X54213942Y-50519056D02*
X54071085Y-50614294D01*
X54071085Y-50614294D02*
X53880609Y-50661913D01*
X53880609Y-50661913D02*
X53499657Y-50661913D01*
X53499657Y-50661913D02*
X53404419Y-50614294D01*
X53404419Y-50614294D02*
X53356800Y-50566675D01*
X53356800Y-50566675D02*
X53309180Y-50471437D01*
X53309180Y-50471437D02*
X53309180Y-50280961D01*
X53309180Y-50280961D02*
X53356800Y-50185723D01*
X53356800Y-50185723D02*
X53404419Y-50138104D01*
X53404419Y-50138104D02*
X53499657Y-50090485D01*
X53499657Y-50090485D02*
X53737752Y-50090485D01*
X53737752Y-50090485D02*
X53832990Y-50138104D01*
X53832990Y-50138104D02*
X53880609Y-50185723D01*
X53880609Y-50185723D02*
X53928228Y-50280961D01*
X53928228Y-50280961D02*
X53928228Y-50471437D01*
X53928228Y-50471437D02*
X53880609Y-50566675D01*
X53880609Y-50566675D02*
X53832990Y-50614294D01*
X53832990Y-50614294D02*
X53737752Y-50661913D01*
%TO.C,C3*%
X57676380Y-74763333D02*
X57724000Y-74715714D01*
X57724000Y-74715714D02*
X57771619Y-74572857D01*
X57771619Y-74572857D02*
X57771619Y-74477619D01*
X57771619Y-74477619D02*
X57724000Y-74334762D01*
X57724000Y-74334762D02*
X57628761Y-74239524D01*
X57628761Y-74239524D02*
X57533523Y-74191905D01*
X57533523Y-74191905D02*
X57343047Y-74144286D01*
X57343047Y-74144286D02*
X57200190Y-74144286D01*
X57200190Y-74144286D02*
X57009714Y-74191905D01*
X57009714Y-74191905D02*
X56914476Y-74239524D01*
X56914476Y-74239524D02*
X56819238Y-74334762D01*
X56819238Y-74334762D02*
X56771619Y-74477619D01*
X56771619Y-74477619D02*
X56771619Y-74572857D01*
X56771619Y-74572857D02*
X56819238Y-74715714D01*
X56819238Y-74715714D02*
X56866857Y-74763333D01*
X56771619Y-75096667D02*
X56771619Y-75715714D01*
X56771619Y-75715714D02*
X57152571Y-75382381D01*
X57152571Y-75382381D02*
X57152571Y-75525238D01*
X57152571Y-75525238D02*
X57200190Y-75620476D01*
X57200190Y-75620476D02*
X57247809Y-75668095D01*
X57247809Y-75668095D02*
X57343047Y-75715714D01*
X57343047Y-75715714D02*
X57581142Y-75715714D01*
X57581142Y-75715714D02*
X57676380Y-75668095D01*
X57676380Y-75668095D02*
X57724000Y-75620476D01*
X57724000Y-75620476D02*
X57771619Y-75525238D01*
X57771619Y-75525238D02*
X57771619Y-75239524D01*
X57771619Y-75239524D02*
X57724000Y-75144286D01*
X57724000Y-75144286D02*
X57676380Y-75096667D01*
%TO.C,SW1*%
X34120542Y-37377759D02*
X34187885Y-37243072D01*
X34187885Y-37243072D02*
X34356244Y-37074713D01*
X34356244Y-37074713D02*
X34457259Y-37041041D01*
X34457259Y-37041041D02*
X34524603Y-37041041D01*
X34524603Y-37041041D02*
X34625618Y-37074713D01*
X34625618Y-37074713D02*
X34692961Y-37142057D01*
X34692961Y-37142057D02*
X34726633Y-37243072D01*
X34726633Y-37243072D02*
X34726633Y-37310415D01*
X34726633Y-37310415D02*
X34692961Y-37411431D01*
X34692961Y-37411431D02*
X34591946Y-37579789D01*
X34591946Y-37579789D02*
X34558274Y-37680805D01*
X34558274Y-37680805D02*
X34558274Y-37748148D01*
X34558274Y-37748148D02*
X34591946Y-37849163D01*
X34591946Y-37849163D02*
X34659290Y-37916507D01*
X34659290Y-37916507D02*
X34760305Y-37950179D01*
X34760305Y-37950179D02*
X34827648Y-37950179D01*
X34827648Y-37950179D02*
X34928664Y-37916507D01*
X34928664Y-37916507D02*
X35097022Y-37748148D01*
X35097022Y-37748148D02*
X35164366Y-37613461D01*
X35433740Y-37411431D02*
X34894992Y-36535965D01*
X34894992Y-36535965D02*
X35534755Y-36906354D01*
X35534755Y-36906354D02*
X35164366Y-36266591D01*
X35164366Y-36266591D02*
X36039831Y-36805339D01*
X35972488Y-35458469D02*
X35568427Y-35862530D01*
X35770457Y-35660500D02*
X36477564Y-36367606D01*
X36477564Y-36367606D02*
X36309205Y-36333935D01*
X36309205Y-36333935D02*
X36174518Y-36333935D01*
X36174518Y-36333935D02*
X36073503Y-36367606D01*
%TO.C,D2*%
X58599294Y-45395219D02*
X58599294Y-44395219D01*
X58599294Y-44395219D02*
X58361199Y-44395219D01*
X58361199Y-44395219D02*
X58218342Y-44442838D01*
X58218342Y-44442838D02*
X58123104Y-44538076D01*
X58123104Y-44538076D02*
X58075485Y-44633314D01*
X58075485Y-44633314D02*
X58027866Y-44823790D01*
X58027866Y-44823790D02*
X58027866Y-44966647D01*
X58027866Y-44966647D02*
X58075485Y-45157123D01*
X58075485Y-45157123D02*
X58123104Y-45252361D01*
X58123104Y-45252361D02*
X58218342Y-45347600D01*
X58218342Y-45347600D02*
X58361199Y-45395219D01*
X58361199Y-45395219D02*
X58599294Y-45395219D01*
X57646913Y-44490457D02*
X57599294Y-44442838D01*
X57599294Y-44442838D02*
X57504056Y-44395219D01*
X57504056Y-44395219D02*
X57265961Y-44395219D01*
X57265961Y-44395219D02*
X57170723Y-44442838D01*
X57170723Y-44442838D02*
X57123104Y-44490457D01*
X57123104Y-44490457D02*
X57075485Y-44585695D01*
X57075485Y-44585695D02*
X57075485Y-44680933D01*
X57075485Y-44680933D02*
X57123104Y-44823790D01*
X57123104Y-44823790D02*
X57694532Y-45395219D01*
X57694532Y-45395219D02*
X57075485Y-45395219D01*
D11*
%TO.C,C1*%
X58221200Y-51123964D02*
X58221200Y-51339636D01*
X57501200Y-51123964D02*
X57501200Y-51339636D01*
%TO.C,U1*%
X50297800Y-61022400D02*
X54197800Y-61022400D01*
X54197800Y-61022400D02*
X54197800Y-56122400D01*
X54197800Y-56122400D02*
X50297800Y-56122400D01*
X50297800Y-56122400D02*
X50297800Y-61022400D01*
%TO.C,C4*%
X25864700Y-50818700D02*
X26652200Y-50818700D01*
X26258450Y-51212450D02*
X26258450Y-50424950D01*
X26892200Y-46625637D02*
X26892200Y-47911200D01*
X26892200Y-46625637D02*
X27956637Y-45561200D01*
X26892200Y-51316763D02*
X26892200Y-50031200D01*
X26892200Y-51316763D02*
X27956637Y-52381200D01*
X27956637Y-45561200D02*
X33712200Y-45561200D01*
X27956637Y-52381200D02*
X33712200Y-52381200D01*
X33712200Y-45561200D02*
X33712200Y-47911200D01*
X33712200Y-52381200D02*
X33712200Y-50031200D01*
%TO.C,REF\u002A\u002A*%
X63730400Y-32445000D02*
X41730400Y-32445000D01*
X41730400Y-32445000D02*
X41730400Y-39945000D01*
X41730400Y-39945000D02*
X63730400Y-39945000D01*
X63730400Y-39945000D02*
X63730400Y-32445000D01*
%TO.C,R5*%
X50285600Y-51625400D02*
X49485600Y-51625400D01*
X49485600Y-51625400D02*
X49485600Y-50025400D01*
X49485600Y-50025400D02*
X50285600Y-50025400D01*
X50285600Y-50025400D02*
X50285600Y-51625400D01*
%TO.C,R3*%
X38620782Y-33220464D02*
X39420782Y-33220464D01*
X39420782Y-33220464D02*
X39420782Y-34820464D01*
X39420782Y-34820464D02*
X38620782Y-34820464D01*
X38620782Y-34820464D02*
X38620782Y-33220464D01*
%TO.C,R2*%
X36791982Y-35785864D02*
X37591982Y-35785864D01*
X37591982Y-35785864D02*
X37591982Y-37385864D01*
X37591982Y-37385864D02*
X36791982Y-37385864D01*
X36791982Y-37385864D02*
X36791982Y-35785864D01*
%TO.C,R1*%
X36264982Y-42751664D02*
X37864982Y-42751664D01*
X37864982Y-42751664D02*
X37864982Y-41951664D01*
X37864982Y-41951664D02*
X36264982Y-41951664D01*
X36264982Y-41951664D02*
X36264982Y-42751664D01*
%TO.C,C6*%
X70883900Y-69399500D02*
X70096400Y-69399500D01*
X70490150Y-69005750D02*
X70490150Y-69793250D01*
X69856400Y-73592563D02*
X69856400Y-72307000D01*
X69856400Y-73592563D02*
X68791963Y-74657000D01*
X69856400Y-68901437D02*
X69856400Y-70187000D01*
X69856400Y-68901437D02*
X68791963Y-67837000D01*
X68791963Y-74657000D02*
X63036400Y-74657000D01*
X68791963Y-67837000D02*
X63036400Y-67837000D01*
X63036400Y-74657000D02*
X63036400Y-72307000D01*
X63036400Y-67837000D02*
X63036400Y-70187000D01*
%TO.C,R4*%
X34700382Y-39195664D02*
X36300382Y-39195664D01*
X36300382Y-39195664D02*
X36300382Y-38395664D01*
X36300382Y-38395664D02*
X34700382Y-38395664D01*
X34700382Y-38395664D02*
X34700382Y-39195664D01*
%TO.C,BT1*%
X68991800Y-40384400D02*
X74281800Y-40384400D01*
X74281800Y-40384400D02*
X74281800Y-65524400D01*
X74281800Y-65524400D02*
X68991800Y-65524400D01*
X68991800Y-65524400D02*
X68991800Y-40384400D01*
X70181800Y-42314400D02*
X73101800Y-42314400D01*
X73101800Y-42314400D02*
X73101800Y-63634400D01*
X73101800Y-63634400D02*
X70181800Y-63634400D01*
X70181800Y-63634400D02*
X70181800Y-42314400D01*
X81578843Y-52984400D02*
G75*
G03*
X81578843Y-52984400I-10027043J0D01*
G01*
%TO.C,C5*%
X24670900Y-63645700D02*
X25458400Y-63645700D01*
X25064650Y-64039450D02*
X25064650Y-63251950D01*
X25698400Y-59452637D02*
X25698400Y-60738200D01*
X25698400Y-59452637D02*
X26762837Y-58388200D01*
X25698400Y-64143763D02*
X25698400Y-62858200D01*
X25698400Y-64143763D02*
X26762837Y-65208200D01*
X26762837Y-58388200D02*
X32518400Y-58388200D01*
X26762837Y-65208200D02*
X32518400Y-65208200D01*
X32518400Y-58388200D02*
X32518400Y-60738200D01*
X32518400Y-65208200D02*
X32518400Y-62858200D01*
%TO.C,C2*%
X40557100Y-76548100D02*
X40557100Y-75760600D01*
X40950850Y-76154350D02*
X40163350Y-76154350D01*
X36364037Y-75520600D02*
X37649600Y-75520600D01*
X36364037Y-75520600D02*
X35299600Y-74456163D01*
X41055163Y-75520600D02*
X39769600Y-75520600D01*
X41055163Y-75520600D02*
X42119600Y-74456163D01*
X35299600Y-74456163D02*
X35299600Y-68700600D01*
X42119600Y-74456163D02*
X42119600Y-68700600D01*
X35299600Y-68700600D02*
X37649600Y-68700600D01*
X42119600Y-68700600D02*
X39769600Y-68700600D01*
%TO.C,R6*%
X52800200Y-51549200D02*
X52000200Y-51549200D01*
X52000200Y-51549200D02*
X52000200Y-49949200D01*
X52000200Y-49949200D02*
X52800200Y-49949200D01*
X52800200Y-49949200D02*
X52800200Y-51549200D01*
%TO.C,C3*%
X54806500Y-79367500D02*
X54806500Y-78580000D01*
X55200250Y-78973750D02*
X54412750Y-78973750D01*
X50613437Y-78340000D02*
X51899000Y-78340000D01*
X50613437Y-78340000D02*
X49549000Y-77275563D01*
X55304563Y-78340000D02*
X54019000Y-78340000D01*
X55304563Y-78340000D02*
X56369000Y-77275563D01*
X49549000Y-77275563D02*
X49549000Y-71520000D01*
X56369000Y-77275563D02*
X56369000Y-71520000D01*
X49549000Y-71520000D02*
X51899000Y-71520000D01*
X56369000Y-71520000D02*
X54019000Y-71520000D01*
%TO.C,SW1*%
X30447619Y-40122608D02*
X39640008Y-30930219D01*
X39640008Y-30930219D02*
X36811581Y-28101792D01*
X36811581Y-28101792D02*
X27619192Y-37294181D01*
X27619192Y-37294181D02*
X30447619Y-40122608D01*
%TD*%
M02*
