%TF.GenerationSoftware,KiCad,Pcbnew,(6.0.5)*%
%TF.CreationDate,2023-05-26T14:33:47-04:00*%
%TF.ProjectId,Robocat Pin,526f626f-6361-4742-9050-696e2e6b6963,rev?*%
%TF.SameCoordinates,Original*%
%TF.FileFunction,Copper,L4,Bot*%
%TF.FilePolarity,Positive*%
%FSLAX46Y46*%
G04 Gerber Fmt 4.6, Leading zero omitted, Abs format (unit mm)*
G04 Created by KiCad (PCBNEW (6.0.5)) date 2023-05-26 14:33:47*
%MOMM*%
%LPD*%
G01*
G04 APERTURE LIST*
G04 Aperture macros list*
%AMRoundRect*
0 Rectangle with rounded corners*
0 $1 Rounding radius*
0 $2 $3 $4 $5 $6 $7 $8 $9 X,Y pos of 4 corners*
0 Add a 4 corners polygon primitive as box body*
4,1,4,$2,$3,$4,$5,$6,$7,$8,$9,$2,$3,0*
0 Add four circle primitives for the rounded corners*
1,1,$1+$1,$2,$3*
1,1,$1+$1,$4,$5*
1,1,$1+$1,$6,$7*
1,1,$1+$1,$8,$9*
0 Add four rect primitives between the rounded corners*
20,1,$1+$1,$2,$3,$4,$5,0*
20,1,$1+$1,$4,$5,$6,$7,0*
20,1,$1+$1,$6,$7,$8,$9,0*
20,1,$1+$1,$8,$9,$2,$3,0*%
%AMRotRect*
0 Rectangle, with rotation*
0 The origin of the aperture is its center*
0 $1 length*
0 $2 width*
0 $3 Rotation angle, in degrees counterclockwise*
0 Add horizontal line*
21,1,$1,$2,0,0,$3*%
G04 Aperture macros list end*
%TA.AperFunction,SMDPad,CuDef*%
%ADD10RoundRect,0.140000X-0.170000X0.140000X-0.170000X-0.140000X0.170000X-0.140000X0.170000X0.140000X0*%
%TD*%
%TA.AperFunction,SMDPad,CuDef*%
%ADD11R,1.150000X0.475000*%
%TD*%
%TA.AperFunction,SMDPad,CuDef*%
%ADD12RoundRect,0.250000X-1.500000X-0.550000X1.500000X-0.550000X1.500000X0.550000X-1.500000X0.550000X0*%
%TD*%
%TA.AperFunction,SMDPad,CuDef*%
%ADD13RoundRect,0.100000X0.100000X-0.130000X0.100000X0.130000X-0.100000X0.130000X-0.100000X-0.130000X0*%
%TD*%
%TA.AperFunction,SMDPad,CuDef*%
%ADD14RoundRect,0.100000X-0.100000X0.130000X-0.100000X-0.130000X0.100000X-0.130000X0.100000X0.130000X0*%
%TD*%
%TA.AperFunction,SMDPad,CuDef*%
%ADD15RoundRect,0.100000X-0.130000X-0.100000X0.130000X-0.100000X0.130000X0.100000X-0.130000X0.100000X0*%
%TD*%
%TA.AperFunction,SMDPad,CuDef*%
%ADD16RoundRect,0.250000X1.500000X0.550000X-1.500000X0.550000X-1.500000X-0.550000X1.500000X-0.550000X0*%
%TD*%
%TA.AperFunction,SMDPad,CuDef*%
%ADD17R,0.750000X1.200000*%
%TD*%
%TA.AperFunction,SMDPad,CuDef*%
%ADD18RoundRect,0.381000X-0.381000X0.762000X-0.381000X-0.762000X0.381000X-0.762000X0.381000X0.762000X0*%
%TD*%
%TA.AperFunction,SMDPad,CuDef*%
%ADD19R,6.100000X2.400000*%
%TD*%
%TA.AperFunction,SMDPad,CuDef*%
%ADD20RoundRect,0.250000X0.550000X-1.500000X0.550000X1.500000X-0.550000X1.500000X-0.550000X-1.500000X0*%
%TD*%
%TA.AperFunction,SMDPad,CuDef*%
%ADD21RotRect,0.800000X1.600000X45.000000*%
%TD*%
%TA.AperFunction,ViaPad*%
%ADD22C,0.800000*%
%TD*%
%TA.AperFunction,Conductor*%
%ADD23C,0.250000*%
%TD*%
G04 APERTURE END LIST*
D10*
%TO.P,C1,1*%
%TO.N,/gnd*%
X57861200Y-50751800D03*
%TO.P,C1,2*%
%TO.N,Net-(C1-Pad2)*%
X57861200Y-51711800D03*
%TD*%
D11*
%TO.P,U1,1,GND*%
%TO.N,/gnd*%
X49707800Y-60477400D03*
%TO.P,U1,2,TR*%
%TO.N,Net-(C2-Pad1)*%
X49707800Y-59207400D03*
%TO.P,U1,3,Q*%
%TO.N,Net-(R5-Pad1)*%
X49707800Y-57937400D03*
%TO.P,U1,4,R*%
%TO.N,Net-(R1-Pad1)*%
X49707800Y-56667400D03*
%TO.P,U1,5,CV*%
%TO.N,Net-(C1-Pad2)*%
X54787800Y-56667400D03*
%TO.P,U1,6,THR*%
%TO.N,Net-(C2-Pad1)*%
X54787800Y-57937400D03*
%TO.P,U1,7,DIS*%
%TO.N,Net-(R1-Pad2)*%
X54787800Y-59207400D03*
%TO.P,U1,8,VCC*%
%TO.N,Net-(R1-Pad1)*%
X54787800Y-60477400D03*
%TD*%
D12*
%TO.P,C4,1*%
%TO.N,Net-(C2-Pad1)*%
X27502200Y-48971200D03*
%TO.P,C4,2*%
%TO.N,/gnd*%
X33102200Y-48971200D03*
%TD*%
D13*
%TO.P,R5,1*%
%TO.N,Net-(R5-Pad1)*%
X49885600Y-51145400D03*
%TO.P,R5,2*%
%TO.N,Net-(D1-Pad2)*%
X49885600Y-50505400D03*
%TD*%
D14*
%TO.P,R3,1*%
%TO.N,Net-(R3-Pad1)*%
X39020782Y-33700464D03*
%TO.P,R3,2*%
%TO.N,Net-(R2-Pad1)*%
X39020782Y-34340464D03*
%TD*%
%TO.P,R2,1*%
%TO.N,Net-(R2-Pad1)*%
X37191982Y-36265864D03*
%TO.P,R2,2*%
%TO.N,Net-(R1-Pad2)*%
X37191982Y-36905864D03*
%TD*%
D15*
%TO.P,R1,1*%
%TO.N,Net-(R1-Pad1)*%
X36744982Y-42351664D03*
%TO.P,R1,2*%
%TO.N,Net-(R1-Pad2)*%
X37384982Y-42351664D03*
%TD*%
D16*
%TO.P,C6,1*%
%TO.N,Net-(C2-Pad1)*%
X69246400Y-71247000D03*
%TO.P,C6,2*%
%TO.N,/gnd*%
X63646400Y-71247000D03*
%TD*%
D17*
%TO.P,D1,1,K*%
%TO.N,/gnd*%
X48895000Y-47625000D03*
%TO.P,D1,2,A*%
%TO.N,Net-(D1-Pad2)*%
X46355000Y-47625000D03*
%TD*%
D15*
%TO.P,R4,1*%
%TO.N,Net-(R4-Pad1)*%
X35180382Y-38795664D03*
%TO.P,R4,2*%
%TO.N,Net-(R1-Pad2)*%
X35820382Y-38795664D03*
%TD*%
D18*
%TO.P,BT1,1,-*%
%TO.N,/gnd*%
X71691800Y-52954400D03*
D19*
%TO.P,BT1,2,+*%
%TO.N,Net-(BT1-Pad2)*%
X71678800Y-41300400D03*
X71551800Y-64541400D03*
%TD*%
D12*
%TO.P,C5,1*%
%TO.N,Net-(C2-Pad1)*%
X26308400Y-61798200D03*
%TO.P,C5,2*%
%TO.N,/gnd*%
X31908400Y-61798200D03*
%TD*%
D20*
%TO.P,C2,1*%
%TO.N,Net-(C2-Pad1)*%
X38709600Y-74910600D03*
%TO.P,C2,2*%
%TO.N,/gnd*%
X38709600Y-69310600D03*
%TD*%
D13*
%TO.P,R6,1*%
%TO.N,Net-(R5-Pad1)*%
X52400200Y-51069200D03*
%TO.P,R6,2*%
%TO.N,Net-(D2-Pad2)*%
X52400200Y-50429200D03*
%TD*%
D20*
%TO.P,C3,1*%
%TO.N,Net-(C2-Pad1)*%
X52959000Y-77730000D03*
%TO.P,C3,2*%
%TO.N,/gnd*%
X52959000Y-72130000D03*
%TD*%
D21*
%TO.P,SW1,1,1*%
%TO.N,Net-(R1-Pad1)*%
X30037498Y-36087856D03*
%TO.P,SW1,2,2*%
%TO.N,unconnected-(SW1-Pad2)*%
X31384536Y-34740818D03*
%TO.P,SW1,3,3*%
%TO.N,Net-(BT1-Pad2)*%
X34258218Y-31867136D03*
%TO.P,SW1,4,4*%
%TO.N,Net-(R1-Pad1)*%
X35605256Y-30520098D03*
%TO.P,SW1,5,5*%
%TO.N,Net-(R3-Pad1)*%
X37221702Y-32136544D03*
%TO.P,SW1,6,6*%
%TO.N,unconnected-(SW1-Pad6)*%
X35874664Y-33483582D03*
%TO.P,SW1,7,7*%
%TO.N,Net-(C2-Pad1)*%
X33000982Y-36357264D03*
%TO.P,SW1,8,8*%
%TO.N,Net-(R4-Pad1)*%
X31653944Y-37704302D03*
%TD*%
D17*
%TO.P,D2,1,K*%
%TO.N,/gnd*%
X59039760Y-47625000D03*
%TO.P,D2,2,A*%
%TO.N,Net-(D2-Pad2)*%
X56499760Y-47625000D03*
%TD*%
D22*
%TO.N,/gnd*%
X52959000Y-72130000D03*
X60147200Y-50749200D03*
X47782161Y-60592300D03*
X60325000Y-47625000D03*
X38709600Y-69310600D03*
X33102200Y-48971200D03*
X71691800Y-52954400D03*
X31908400Y-61798200D03*
X63646400Y-71247000D03*
X50190400Y-47625000D03*
%TO.N,Net-(C2-Pad1)*%
X33000982Y-36357264D03*
X26308400Y-61798200D03*
X69246400Y-71247000D03*
X27502200Y-48971200D03*
X56184800Y-57937400D03*
X52959000Y-77730000D03*
X48264299Y-59143300D03*
X38709600Y-74910600D03*
%TD*%
D23*
%TO.N,/gnd*%
X57863800Y-50749200D02*
X57861200Y-50751800D01*
X60147200Y-50749200D02*
X57863800Y-50749200D01*
X59039760Y-47625000D02*
X60325000Y-47625000D01*
X50190400Y-47625000D02*
X48895000Y-47625000D01*
X49592900Y-60592300D02*
X49707800Y-60477400D01*
X47782161Y-60592300D02*
X49592900Y-60592300D01*
%TO.N,Net-(BT1-Pad2)*%
X65811400Y-28727400D02*
X34518600Y-28727400D01*
X76212700Y-41300400D02*
X71678800Y-41300400D01*
X72466200Y-40513000D02*
X72466200Y-35382200D01*
X71678800Y-41300400D02*
X72466200Y-40513000D01*
X82499200Y-47586900D02*
X76212700Y-41300400D01*
X71551800Y-64541400D02*
X76009500Y-64541400D01*
X72466200Y-35382200D02*
X65811400Y-28727400D01*
X34258218Y-28987782D02*
X34518600Y-28727400D01*
X76009500Y-64541400D02*
X82499200Y-58051700D01*
X82499200Y-58051700D02*
X82499200Y-47586900D01*
X34258218Y-31867136D02*
X34258218Y-28987782D01*
%TO.N,Net-(C1-Pad2)*%
X54787800Y-54785200D02*
X54787800Y-56667400D01*
X57861200Y-51711800D02*
X54787800Y-54785200D01*
%TO.N,Net-(C2-Pad1)*%
X48264299Y-59143300D02*
X49643700Y-59143300D01*
X49643700Y-59143300D02*
X49707800Y-59207400D01*
X54787800Y-57937400D02*
X56184800Y-57937400D01*
%TO.N,Net-(D1-Pad2)*%
X48385400Y-50505400D02*
X46355000Y-48475000D01*
X49885600Y-50505400D02*
X48385400Y-50505400D01*
X46355000Y-48475000D02*
X46355000Y-47625000D01*
%TO.N,Net-(D2-Pad2)*%
X52400200Y-50429200D02*
X55204400Y-47625000D01*
X55204400Y-47625000D02*
X56499760Y-47625000D01*
%TO.N,Net-(R1-Pad1)*%
X48869600Y-56667400D02*
X47193200Y-58343800D01*
X34112200Y-42367200D02*
X36729446Y-42367200D01*
X30480896Y-38735896D02*
X34112200Y-42367200D01*
X36744982Y-43704582D02*
X36744982Y-42351664D01*
X49707800Y-56667400D02*
X48869600Y-56667400D01*
X31627810Y-36087856D02*
X35605256Y-32110410D01*
X52933600Y-59867800D02*
X53543200Y-60477400D01*
X35605256Y-32110410D02*
X35605256Y-30520098D01*
X47193200Y-58343800D02*
X47193200Y-59309000D01*
X47193200Y-59309000D02*
X47752000Y-59867800D01*
X31627810Y-36087856D02*
X30480896Y-37234770D01*
X36729446Y-42367200D02*
X36744982Y-42351664D01*
X30480896Y-37234770D02*
X30480896Y-38735896D01*
X53543200Y-60477400D02*
X54787800Y-60477400D01*
X30037498Y-36087856D02*
X31627810Y-36087856D01*
X47752000Y-59867800D02*
X52933600Y-59867800D01*
X49707800Y-56667400D02*
X36744982Y-43704582D01*
%TO.N,Net-(R1-Pad2)*%
X48808289Y-58499411D02*
X48808289Y-57541511D01*
X50647600Y-55614282D02*
X37384982Y-42351664D01*
X48808289Y-57541511D02*
X49120389Y-57229411D01*
X37384982Y-40360264D02*
X37384982Y-42351664D01*
X49120389Y-57229411D02*
X50441189Y-57229411D01*
X54787800Y-59207400D02*
X51169322Y-59207400D01*
X37191982Y-36905864D02*
X37191982Y-37424064D01*
X50441189Y-57229411D02*
X50647600Y-57023000D01*
X37191982Y-37424064D02*
X35820382Y-38795664D01*
X50461333Y-58499411D02*
X48808289Y-58499411D01*
X35820382Y-38795664D02*
X37384982Y-40360264D01*
X50647600Y-57023000D02*
X50647600Y-55614282D01*
X51169322Y-59207400D02*
X50461333Y-58499411D01*
%TO.N,Net-(R2-Pad1)*%
X39020782Y-34437064D02*
X37191982Y-36265864D01*
X39020782Y-34340464D02*
X39020782Y-34437064D01*
X39020782Y-34340464D02*
X38989336Y-34340464D01*
%TO.N,Net-(R3-Pad1)*%
X37221702Y-32136544D02*
X37456862Y-32136544D01*
X37456862Y-32136544D02*
X39020782Y-33700464D01*
%TO.N,Net-(R4-Pad1)*%
X32745306Y-38795664D02*
X35180382Y-38795664D01*
X31653944Y-37704302D02*
X32745306Y-38795664D01*
%TO.N,Net-(R5-Pad1)*%
X51206400Y-52466200D02*
X51206400Y-57353200D01*
X50622200Y-57937400D02*
X49707800Y-57937400D01*
X49961800Y-51069200D02*
X49885600Y-51145400D01*
X51206400Y-57353200D02*
X50622200Y-57937400D01*
X52400200Y-51069200D02*
X49961800Y-51069200D01*
X49885600Y-51145400D02*
X51206400Y-52466200D01*
X49700120Y-57937400D02*
X49707800Y-57937400D01*
%TD*%
M02*
