%TF.GenerationSoftware,KiCad,Pcbnew,(6.0.5)*%
%TF.CreationDate,2023-06-02T13:35:43-04:00*%
%TF.ProjectId,Robocat Pin,526f626f-6361-4742-9050-696e2e6b6963,rev?*%
%TF.SameCoordinates,Original*%
%TF.FileFunction,Copper,L4,Bot*%
%TF.FilePolarity,Positive*%
%FSLAX46Y46*%
G04 Gerber Fmt 4.6, Leading zero omitted, Abs format (unit mm)*
G04 Created by KiCad (PCBNEW (6.0.5)) date 2023-06-02 13:35:43*
%MOMM*%
%LPD*%
G01*
G04 APERTURE LIST*
G04 Aperture macros list*
%AMRoundRect*
0 Rectangle with rounded corners*
0 $1 Rounding radius*
0 $2 $3 $4 $5 $6 $7 $8 $9 X,Y pos of 4 corners*
0 Add a 4 corners polygon primitive as box body*
4,1,4,$2,$3,$4,$5,$6,$7,$8,$9,$2,$3,0*
0 Add four circle primitives for the rounded corners*
1,1,$1+$1,$2,$3*
1,1,$1+$1,$4,$5*
1,1,$1+$1,$6,$7*
1,1,$1+$1,$8,$9*
0 Add four rect primitives between the rounded corners*
20,1,$1+$1,$2,$3,$4,$5,0*
20,1,$1+$1,$4,$5,$6,$7,0*
20,1,$1+$1,$6,$7,$8,$9,0*
20,1,$1+$1,$8,$9,$2,$3,0*%
%AMRotRect*
0 Rectangle, with rotation*
0 The origin of the aperture is its center*
0 $1 length*
0 $2 width*
0 $3 Rotation angle, in degrees counterclockwise*
0 Add horizontal line*
21,1,$1,$2,0,0,$3*%
G04 Aperture macros list end*
%TA.AperFunction,SMDPad,CuDef*%
%ADD10RoundRect,0.140000X-0.170000X0.140000X-0.170000X-0.140000X0.170000X-0.140000X0.170000X0.140000X0*%
%TD*%
%TA.AperFunction,SMDPad,CuDef*%
%ADD11R,1.550000X0.600000*%
%TD*%
%TA.AperFunction,SMDPad,CuDef*%
%ADD12RoundRect,0.250000X-1.500000X-0.550000X1.500000X-0.550000X1.500000X0.550000X-1.500000X0.550000X0*%
%TD*%
%TA.AperFunction,SMDPad,CuDef*%
%ADD13R,0.800000X0.650000*%
%TD*%
%TA.AperFunction,SMDPad,CuDef*%
%ADD14R,0.650000X0.800000*%
%TD*%
%TA.AperFunction,SMDPad,CuDef*%
%ADD15RoundRect,0.250000X1.500000X0.550000X-1.500000X0.550000X-1.500000X-0.550000X1.500000X-0.550000X0*%
%TD*%
%TA.AperFunction,SMDPad,CuDef*%
%ADD16R,1.151300X1.250000*%
%TD*%
%TA.AperFunction,SMDPad,CuDef*%
%ADD17RoundRect,0.381000X-0.381000X0.762000X-0.381000X-0.762000X0.381000X-0.762000X0.381000X0.762000X0*%
%TD*%
%TA.AperFunction,SMDPad,CuDef*%
%ADD18R,6.100000X2.400000*%
%TD*%
%TA.AperFunction,SMDPad,CuDef*%
%ADD19RoundRect,0.250000X0.550000X-1.500000X0.550000X1.500000X-0.550000X1.500000X-0.550000X-1.500000X0*%
%TD*%
%TA.AperFunction,SMDPad,CuDef*%
%ADD20RotRect,0.800000X1.600000X45.000000*%
%TD*%
%TA.AperFunction,ViaPad*%
%ADD21C,0.800000*%
%TD*%
%TA.AperFunction,Conductor*%
%ADD22C,0.250000*%
%TD*%
G04 APERTURE END LIST*
D10*
%TO.P,C1,1*%
%TO.N,/gnd*%
X57861200Y-50751800D03*
%TO.P,C1,2*%
%TO.N,Net-(C1-Pad2)*%
X57861200Y-51711800D03*
%TD*%
D11*
%TO.P,U1,1,GND*%
%TO.N,/gnd*%
X49547800Y-60477400D03*
%TO.P,U1,2,TR*%
%TO.N,Net-(C2-Pad1)*%
X49547800Y-59207400D03*
%TO.P,U1,3,Q*%
%TO.N,Net-(R5-Pad1)*%
X49547800Y-57937400D03*
%TO.P,U1,4,R*%
%TO.N,Net-(R1-Pad1)*%
X49547800Y-56667400D03*
%TO.P,U1,5,CV*%
%TO.N,Net-(C1-Pad2)*%
X54947800Y-56667400D03*
%TO.P,U1,6,THR*%
%TO.N,Net-(C2-Pad1)*%
X54947800Y-57937400D03*
%TO.P,U1,7,DIS*%
%TO.N,Net-(R1-Pad2)*%
X54947800Y-59207400D03*
%TO.P,U1,8,VCC*%
%TO.N,Net-(R1-Pad1)*%
X54947800Y-60477400D03*
%TD*%
D12*
%TO.P,C4,1*%
%TO.N,Net-(C2-Pad1)*%
X27502200Y-48971200D03*
%TO.P,C4,2*%
%TO.N,/gnd*%
X33102200Y-48971200D03*
%TD*%
D13*
%TO.P,R5,1*%
%TO.N,Net-(R5-Pad1)*%
X49885600Y-51600400D03*
%TO.P,R5,2*%
%TO.N,Net-(D1-Pad2)*%
X49885600Y-50050400D03*
%TD*%
%TO.P,R3,1*%
%TO.N,Net-(R3-Pad1)*%
X39020782Y-33245464D03*
%TO.P,R3,2*%
%TO.N,Net-(R2-Pad1)*%
X39020782Y-34795464D03*
%TD*%
%TO.P,R2,1*%
%TO.N,Net-(R2-Pad1)*%
X37191982Y-35810864D03*
%TO.P,R2,2*%
%TO.N,Net-(R1-Pad2)*%
X37191982Y-37360864D03*
%TD*%
D14*
%TO.P,R1,1*%
%TO.N,Net-(R1-Pad1)*%
X36289982Y-42351664D03*
%TO.P,R1,2*%
%TO.N,Net-(R1-Pad2)*%
X37839982Y-42351664D03*
%TD*%
D15*
%TO.P,C6,1*%
%TO.N,Net-(C2-Pad1)*%
X69246400Y-71247000D03*
%TO.P,C6,2*%
%TO.N,/gnd*%
X63646400Y-71247000D03*
%TD*%
D16*
%TO.P,D1,1,K*%
%TO.N,/gnd*%
X49250650Y-47625000D03*
%TO.P,D1,2,A*%
%TO.N,Net-(D1-Pad2)*%
X45999350Y-47625000D03*
%TD*%
D14*
%TO.P,R4,1*%
%TO.N,Net-(R4-Pad1)*%
X34725382Y-38795664D03*
%TO.P,R4,2*%
%TO.N,Net-(R1-Pad2)*%
X36275382Y-38795664D03*
%TD*%
D17*
%TO.P,BT1,1,-*%
%TO.N,/gnd*%
X71691800Y-52954400D03*
D18*
%TO.P,BT1,2,+*%
%TO.N,Net-(BT1-Pad2)*%
X71678800Y-41300400D03*
X71551800Y-64541400D03*
%TD*%
D12*
%TO.P,C5,1*%
%TO.N,Net-(C2-Pad1)*%
X26308400Y-61798200D03*
%TO.P,C5,2*%
%TO.N,/gnd*%
X31908400Y-61798200D03*
%TD*%
D19*
%TO.P,C2,1*%
%TO.N,Net-(C2-Pad1)*%
X38709600Y-74910600D03*
%TO.P,C2,2*%
%TO.N,/gnd*%
X38709600Y-69310600D03*
%TD*%
D13*
%TO.P,R6,1*%
%TO.N,Net-(R5-Pad1)*%
X52400200Y-51524200D03*
%TO.P,R6,2*%
%TO.N,Net-(D2-Pad2)*%
X52400200Y-49974200D03*
%TD*%
D19*
%TO.P,C3,1*%
%TO.N,Net-(C2-Pad1)*%
X52959000Y-77730000D03*
%TO.P,C3,2*%
%TO.N,/gnd*%
X52959000Y-72130000D03*
%TD*%
D20*
%TO.P,SW1,1,1*%
%TO.N,Net-(R1-Pad1)*%
X30037498Y-36087856D03*
%TO.P,SW1,2,2*%
%TO.N,unconnected-(SW1-Pad2)*%
X31384536Y-34740818D03*
%TO.P,SW1,3,3*%
%TO.N,Net-(BT1-Pad2)*%
X34258218Y-31867136D03*
%TO.P,SW1,4,4*%
%TO.N,Net-(R1-Pad1)*%
X35605256Y-30520098D03*
%TO.P,SW1,5,5*%
%TO.N,Net-(R3-Pad1)*%
X37221702Y-32136544D03*
%TO.P,SW1,6,6*%
%TO.N,unconnected-(SW1-Pad6)*%
X35874664Y-33483582D03*
%TO.P,SW1,7,7*%
%TO.N,Net-(C2-Pad1)*%
X33000982Y-36357264D03*
%TO.P,SW1,8,8*%
%TO.N,Net-(R4-Pad1)*%
X31653944Y-37704302D03*
%TD*%
D16*
%TO.P,D2,1,K*%
%TO.N,/gnd*%
X59395410Y-47625000D03*
%TO.P,D2,2,A*%
%TO.N,Net-(D2-Pad2)*%
X56144110Y-47625000D03*
%TD*%
D21*
%TO.N,/gnd*%
X52959000Y-72130000D03*
X60147200Y-50749200D03*
X47782161Y-60592300D03*
X60325000Y-47625000D03*
X38709600Y-69310600D03*
X33102200Y-48971200D03*
X71691800Y-52954400D03*
X31908400Y-61798200D03*
X63646400Y-71247000D03*
X50190400Y-47625000D03*
%TO.N,Net-(C2-Pad1)*%
X33000982Y-36357264D03*
X26308400Y-61798200D03*
X69246400Y-71247000D03*
X27502200Y-48971200D03*
X56184800Y-57937400D03*
X52959000Y-77730000D03*
X48264299Y-59143300D03*
X38709600Y-74910600D03*
%TD*%
D22*
%TO.N,/gnd*%
X49547800Y-60477400D02*
X47897061Y-60477400D01*
X59395410Y-47625000D02*
X60325000Y-47625000D01*
X57863800Y-50749200D02*
X57861200Y-50751800D01*
X60147200Y-50749200D02*
X57863800Y-50749200D01*
X47897061Y-60477400D02*
X47782161Y-60592300D01*
X50190400Y-47625000D02*
X48895000Y-47625000D01*
%TO.N,Net-(BT1-Pad2)*%
X65811400Y-28727400D02*
X34518600Y-28727400D01*
X76212700Y-41300400D02*
X71678800Y-41300400D01*
X72466200Y-40513000D02*
X72466200Y-35382200D01*
X71678800Y-41300400D02*
X72466200Y-40513000D01*
X82499200Y-47586900D02*
X76212700Y-41300400D01*
X71551800Y-64541400D02*
X76009500Y-64541400D01*
X72466200Y-35382200D02*
X65811400Y-28727400D01*
X34258218Y-28987782D02*
X34518600Y-28727400D01*
X76009500Y-64541400D02*
X82499200Y-58051700D01*
X82499200Y-58051700D02*
X82499200Y-47586900D01*
X34258218Y-31867136D02*
X34258218Y-28987782D01*
%TO.N,Net-(C1-Pad2)*%
X57861200Y-51711800D02*
X54947800Y-54625200D01*
X54947800Y-54625200D02*
X54947800Y-56667400D01*
%TO.N,Net-(C2-Pad1)*%
X48264299Y-59143300D02*
X49483700Y-59143300D01*
X54947800Y-57937400D02*
X56184800Y-57937400D01*
X49483700Y-59143300D02*
X49547800Y-59207400D01*
%TO.N,Net-(D1-Pad2)*%
X49885600Y-50050400D02*
X47930400Y-50050400D01*
X45999350Y-48119350D02*
X45999350Y-47625000D01*
X47930400Y-50050400D02*
X45999350Y-48119350D01*
%TO.N,Net-(D2-Pad2)*%
X55204400Y-47625000D02*
X56144110Y-47625000D01*
X52855200Y-49974200D02*
X55204400Y-47625000D01*
X52400200Y-49974200D02*
X52855200Y-49974200D01*
%TO.N,Net-(R1-Pad1)*%
X48448289Y-59867800D02*
X48463200Y-59852889D01*
X30480896Y-38735896D02*
X34096664Y-42351664D01*
X34096664Y-42351664D02*
X36289982Y-42351664D01*
X36289982Y-42351664D02*
X36289982Y-43249582D01*
X48463200Y-59852889D02*
X54323289Y-59852889D01*
X48902311Y-57312889D02*
X48448289Y-57312889D01*
X47193200Y-59309000D02*
X47752000Y-59867800D01*
X31627810Y-36087856D02*
X30480896Y-37234770D01*
X49547800Y-56507400D02*
X49547800Y-56667400D01*
X54323289Y-59852889D02*
X54947800Y-60477400D01*
X31627810Y-36087856D02*
X35605256Y-32110410D01*
X47752000Y-59867800D02*
X48448289Y-59867800D01*
X35605256Y-32110410D02*
X35605256Y-30520098D01*
X48448289Y-57312889D02*
X47193200Y-58567978D01*
X30480896Y-37234770D02*
X30480896Y-38735896D01*
X36289982Y-43249582D02*
X49547800Y-56507400D01*
X47193200Y-58567978D02*
X47193200Y-59309000D01*
X30037498Y-36087856D02*
X31627810Y-36087856D01*
X49547800Y-56667400D02*
X48902311Y-57312889D01*
%TO.N,Net-(R1-Pad2)*%
X37839982Y-42351664D02*
X46363007Y-50874689D01*
X46363007Y-50874689D02*
X53124711Y-50874689D01*
X53124711Y-57838333D02*
X54493778Y-59207400D01*
X36275382Y-38795664D02*
X37839982Y-40360264D01*
X53124711Y-50874689D02*
X53124711Y-57838333D01*
X36275382Y-38277464D02*
X36275382Y-38795664D01*
X54493778Y-59207400D02*
X54947800Y-59207400D01*
X37191982Y-37360864D02*
X36275382Y-38277464D01*
X37839982Y-40360264D02*
X37839982Y-42351664D01*
%TO.N,Net-(R2-Pad1)*%
X39020782Y-34795464D02*
X38207382Y-34795464D01*
X38207382Y-34795464D02*
X37191982Y-35810864D01*
%TO.N,Net-(R3-Pad1)*%
X37221702Y-32136544D02*
X37911862Y-32136544D01*
X37911862Y-32136544D02*
X39020782Y-33245464D01*
%TO.N,Net-(R4-Pad1)*%
X31653944Y-37704302D02*
X32745306Y-38795664D01*
X32745306Y-38795664D02*
X34725382Y-38795664D01*
%TO.N,Net-(R5-Pad1)*%
X50001822Y-57937400D02*
X49700120Y-57937400D01*
X51097120Y-55428085D02*
X51097120Y-56842102D01*
X52400200Y-51524200D02*
X49961800Y-51524200D01*
X49885600Y-54216564D02*
X51097120Y-55428085D01*
X49885600Y-51600400D02*
X49885600Y-54216564D01*
X49961800Y-51524200D02*
X49885600Y-51600400D01*
X51097120Y-56842102D02*
X50001822Y-57937400D01*
%TD*%
M02*
