%TF.GenerationSoftware,KiCad,Pcbnew,(6.0.5)*%
%TF.CreationDate,2023-05-26T14:33:47-04:00*%
%TF.ProjectId,Robocat Pin,526f626f-6361-4742-9050-696e2e6b6963,rev?*%
%TF.SameCoordinates,Original*%
%TF.FileFunction,Legend,Bot*%
%TF.FilePolarity,Positive*%
%FSLAX46Y46*%
G04 Gerber Fmt 4.6, Leading zero omitted, Abs format (unit mm)*
G04 Created by KiCad (PCBNEW (6.0.5)) date 2023-05-26 14:33:47*
%MOMM*%
%LPD*%
G01*
G04 APERTURE LIST*
%ADD10C,0.150000*%
%ADD11C,0.120000*%
G04 APERTURE END LIST*
D10*
X41275000Y-40005000D02*
X64135000Y-40005000D01*
X64135000Y-40005000D02*
X64135000Y-32385000D01*
X64135000Y-32385000D02*
X41275000Y-32385000D01*
X41275000Y-32385000D02*
X41275000Y-40005000D01*
%TO.C,C1*%
X57058342Y-51065133D02*
X57105961Y-51017514D01*
X57153580Y-50874657D01*
X57153580Y-50779419D01*
X57105961Y-50636561D01*
X57010723Y-50541323D01*
X56915485Y-50493704D01*
X56725009Y-50446085D01*
X56582152Y-50446085D01*
X56391676Y-50493704D01*
X56296438Y-50541323D01*
X56201200Y-50636561D01*
X56153580Y-50779419D01*
X56153580Y-50874657D01*
X56201200Y-51017514D01*
X56248819Y-51065133D01*
X57153580Y-52017514D02*
X57153580Y-51446085D01*
X57153580Y-51731800D02*
X56153580Y-51731800D01*
X56296438Y-51636561D01*
X56391676Y-51541323D01*
X56439295Y-51446085D01*
%TO.C,U1*%
X52795419Y-59334304D02*
X51985895Y-59334304D01*
X51890657Y-59286685D01*
X51843038Y-59239066D01*
X51795419Y-59143828D01*
X51795419Y-58953352D01*
X51843038Y-58858114D01*
X51890657Y-58810495D01*
X51985895Y-58762876D01*
X52795419Y-58762876D01*
X51795419Y-57762876D02*
X51795419Y-58334304D01*
X51795419Y-58048590D02*
X52795419Y-58048590D01*
X52652561Y-58143828D01*
X52557323Y-58239066D01*
X52509704Y-58334304D01*
%TO.C,C4*%
X30468866Y-53678342D02*
X30516485Y-53725961D01*
X30659342Y-53773580D01*
X30754580Y-53773580D01*
X30897438Y-53725961D01*
X30992676Y-53630723D01*
X31040295Y-53535485D01*
X31087914Y-53345009D01*
X31087914Y-53202152D01*
X31040295Y-53011676D01*
X30992676Y-52916438D01*
X30897438Y-52821200D01*
X30754580Y-52773580D01*
X30659342Y-52773580D01*
X30516485Y-52821200D01*
X30468866Y-52868819D01*
X29611723Y-53106914D02*
X29611723Y-53773580D01*
X29849819Y-52725961D02*
X30087914Y-53440247D01*
X29468866Y-53440247D01*
%TO.C,R5*%
X51387980Y-50658733D02*
X50911790Y-50325400D01*
X51387980Y-50087304D02*
X50387980Y-50087304D01*
X50387980Y-50468257D01*
X50435600Y-50563495D01*
X50483219Y-50611114D01*
X50578457Y-50658733D01*
X50721314Y-50658733D01*
X50816552Y-50611114D01*
X50864171Y-50563495D01*
X50911790Y-50468257D01*
X50911790Y-50087304D01*
X50387980Y-51563495D02*
X50387980Y-51087304D01*
X50864171Y-51039685D01*
X50816552Y-51087304D01*
X50768933Y-51182542D01*
X50768933Y-51420638D01*
X50816552Y-51515876D01*
X50864171Y-51563495D01*
X50959409Y-51611114D01*
X51197504Y-51611114D01*
X51292742Y-51563495D01*
X51340361Y-51515876D01*
X51387980Y-51420638D01*
X51387980Y-51182542D01*
X51340361Y-51087304D01*
X51292742Y-51039685D01*
%TO.C,R3*%
X38423162Y-33853797D02*
X37946972Y-33520464D01*
X38423162Y-33282368D02*
X37423162Y-33282368D01*
X37423162Y-33663321D01*
X37470782Y-33758559D01*
X37518401Y-33806178D01*
X37613639Y-33853797D01*
X37756496Y-33853797D01*
X37851734Y-33806178D01*
X37899353Y-33758559D01*
X37946972Y-33663321D01*
X37946972Y-33282368D01*
X37423162Y-34187130D02*
X37423162Y-34806178D01*
X37804115Y-34472844D01*
X37804115Y-34615702D01*
X37851734Y-34710940D01*
X37899353Y-34758559D01*
X37994591Y-34806178D01*
X38232686Y-34806178D01*
X38327924Y-34758559D01*
X38375543Y-34710940D01*
X38423162Y-34615702D01*
X38423162Y-34329987D01*
X38375543Y-34234749D01*
X38327924Y-34187130D01*
%TO.C,R2*%
X39085780Y-36536333D02*
X38609590Y-36203000D01*
X39085780Y-35964904D02*
X38085780Y-35964904D01*
X38085780Y-36345857D01*
X38133400Y-36441095D01*
X38181019Y-36488714D01*
X38276257Y-36536333D01*
X38419114Y-36536333D01*
X38514352Y-36488714D01*
X38561971Y-36441095D01*
X38609590Y-36345857D01*
X38609590Y-35964904D01*
X38181019Y-36917285D02*
X38133400Y-36964904D01*
X38085780Y-37060142D01*
X38085780Y-37298238D01*
X38133400Y-37393476D01*
X38181019Y-37441095D01*
X38276257Y-37488714D01*
X38371495Y-37488714D01*
X38514352Y-37441095D01*
X39085780Y-36869666D01*
X39085780Y-37488714D01*
%TO.C,R1*%
X37231648Y-43854044D02*
X37564982Y-43377854D01*
X37803077Y-43854044D02*
X37803077Y-42854044D01*
X37422124Y-42854044D01*
X37326886Y-42901664D01*
X37279267Y-42949283D01*
X37231648Y-43044521D01*
X37231648Y-43187378D01*
X37279267Y-43282616D01*
X37326886Y-43330235D01*
X37422124Y-43377854D01*
X37803077Y-43377854D01*
X36279267Y-43854044D02*
X36850696Y-43854044D01*
X36564982Y-43854044D02*
X36564982Y-42854044D01*
X36660220Y-42996902D01*
X36755458Y-43092140D01*
X36850696Y-43139759D01*
%TO.C,C6*%
X66613066Y-67254142D02*
X66660685Y-67301761D01*
X66803542Y-67349380D01*
X66898780Y-67349380D01*
X67041638Y-67301761D01*
X67136876Y-67206523D01*
X67184495Y-67111285D01*
X67232114Y-66920809D01*
X67232114Y-66777952D01*
X67184495Y-66587476D01*
X67136876Y-66492238D01*
X67041638Y-66397000D01*
X66898780Y-66349380D01*
X66803542Y-66349380D01*
X66660685Y-66397000D01*
X66613066Y-66444619D01*
X65755923Y-66349380D02*
X65946400Y-66349380D01*
X66041638Y-66397000D01*
X66089257Y-66444619D01*
X66184495Y-66587476D01*
X66232114Y-66777952D01*
X66232114Y-67158904D01*
X66184495Y-67254142D01*
X66136876Y-67301761D01*
X66041638Y-67349380D01*
X65851161Y-67349380D01*
X65755923Y-67301761D01*
X65708304Y-67254142D01*
X65660685Y-67158904D01*
X65660685Y-66920809D01*
X65708304Y-66825571D01*
X65755923Y-66777952D01*
X65851161Y-66730333D01*
X66041638Y-66730333D01*
X66136876Y-66777952D01*
X66184495Y-66825571D01*
X66232114Y-66920809D01*
%TO.C,D1*%
X58523095Y-42997380D02*
X58523095Y-41997380D01*
X58285000Y-41997380D01*
X58142142Y-42045000D01*
X58046904Y-42140238D01*
X57999285Y-42235476D01*
X57951666Y-42425952D01*
X57951666Y-42568809D01*
X57999285Y-42759285D01*
X58046904Y-42854523D01*
X58142142Y-42949761D01*
X58285000Y-42997380D01*
X58523095Y-42997380D01*
X56999285Y-42997380D02*
X57570714Y-42997380D01*
X57285000Y-42997380D02*
X57285000Y-41997380D01*
X57380238Y-42140238D01*
X57475476Y-42235476D01*
X57570714Y-42283095D01*
%TO.C,R4*%
X36472048Y-40546001D02*
X36805382Y-40069811D01*
X37043477Y-40546001D02*
X37043477Y-39546001D01*
X36662524Y-39546001D01*
X36567286Y-39593621D01*
X36519667Y-39641240D01*
X36472048Y-39736478D01*
X36472048Y-39879335D01*
X36519667Y-39974573D01*
X36567286Y-40022192D01*
X36662524Y-40069811D01*
X37043477Y-40069811D01*
X35614905Y-39879335D02*
X35614905Y-40546001D01*
X35853001Y-39498382D02*
X36091096Y-40212668D01*
X35472048Y-40212668D01*
%TO.C,BT1*%
X70980371Y-52198685D02*
X71027990Y-52341542D01*
X71075609Y-52389161D01*
X71170847Y-52436780D01*
X71313704Y-52436780D01*
X71408942Y-52389161D01*
X71456561Y-52341542D01*
X71504180Y-52246304D01*
X71504180Y-51865352D01*
X70504180Y-51865352D01*
X70504180Y-52198685D01*
X70551800Y-52293923D01*
X70599419Y-52341542D01*
X70694657Y-52389161D01*
X70789895Y-52389161D01*
X70885133Y-52341542D01*
X70932752Y-52293923D01*
X70980371Y-52198685D01*
X70980371Y-51865352D01*
X70504180Y-52722495D02*
X70504180Y-53293923D01*
X71504180Y-53008209D02*
X70504180Y-53008209D01*
X71504180Y-54151066D02*
X71504180Y-53579638D01*
X71504180Y-53865352D02*
X70504180Y-53865352D01*
X70647038Y-53770114D01*
X70742276Y-53674876D01*
X70789895Y-53579638D01*
%TO.C,C5*%
X29605266Y-66828942D02*
X29652885Y-66876561D01*
X29795742Y-66924180D01*
X29890980Y-66924180D01*
X30033838Y-66876561D01*
X30129076Y-66781323D01*
X30176695Y-66686085D01*
X30224314Y-66495609D01*
X30224314Y-66352752D01*
X30176695Y-66162276D01*
X30129076Y-66067038D01*
X30033838Y-65971800D01*
X29890980Y-65924180D01*
X29795742Y-65924180D01*
X29652885Y-65971800D01*
X29605266Y-66019419D01*
X28700504Y-65924180D02*
X29176695Y-65924180D01*
X29224314Y-66400371D01*
X29176695Y-66352752D01*
X29081457Y-66305133D01*
X28843361Y-66305133D01*
X28748123Y-66352752D01*
X28700504Y-66400371D01*
X28652885Y-66495609D01*
X28652885Y-66733704D01*
X28700504Y-66828942D01*
X28748123Y-66876561D01*
X28843361Y-66924180D01*
X29081457Y-66924180D01*
X29176695Y-66876561D01*
X29224314Y-66828942D01*
%TO.C,C2*%
X43416742Y-71943933D02*
X43464361Y-71896314D01*
X43511980Y-71753457D01*
X43511980Y-71658219D01*
X43464361Y-71515361D01*
X43369123Y-71420123D01*
X43273885Y-71372504D01*
X43083409Y-71324885D01*
X42940552Y-71324885D01*
X42750076Y-71372504D01*
X42654838Y-71420123D01*
X42559600Y-71515361D01*
X42511980Y-71658219D01*
X42511980Y-71753457D01*
X42559600Y-71896314D01*
X42607219Y-71943933D01*
X42607219Y-72324885D02*
X42559600Y-72372504D01*
X42511980Y-72467742D01*
X42511980Y-72705838D01*
X42559600Y-72801076D01*
X42607219Y-72848695D01*
X42702457Y-72896314D01*
X42797695Y-72896314D01*
X42940552Y-72848695D01*
X43511980Y-72277266D01*
X43511980Y-72896314D01*
%TO.C,R6*%
X53902580Y-50582533D02*
X53426390Y-50249200D01*
X53902580Y-50011104D02*
X52902580Y-50011104D01*
X52902580Y-50392057D01*
X52950200Y-50487295D01*
X52997819Y-50534914D01*
X53093057Y-50582533D01*
X53235914Y-50582533D01*
X53331152Y-50534914D01*
X53378771Y-50487295D01*
X53426390Y-50392057D01*
X53426390Y-50011104D01*
X52902580Y-51439676D02*
X52902580Y-51249200D01*
X52950200Y-51153961D01*
X52997819Y-51106342D01*
X53140676Y-51011104D01*
X53331152Y-50963485D01*
X53712104Y-50963485D01*
X53807342Y-51011104D01*
X53854961Y-51058723D01*
X53902580Y-51153961D01*
X53902580Y-51344438D01*
X53854961Y-51439676D01*
X53807342Y-51487295D01*
X53712104Y-51534914D01*
X53474009Y-51534914D01*
X53378771Y-51487295D01*
X53331152Y-51439676D01*
X53283533Y-51344438D01*
X53283533Y-51153961D01*
X53331152Y-51058723D01*
X53378771Y-51011104D01*
X53474009Y-50963485D01*
%TO.C,C3*%
X57666142Y-74763333D02*
X57713761Y-74715714D01*
X57761380Y-74572857D01*
X57761380Y-74477619D01*
X57713761Y-74334761D01*
X57618523Y-74239523D01*
X57523285Y-74191904D01*
X57332809Y-74144285D01*
X57189952Y-74144285D01*
X56999476Y-74191904D01*
X56904238Y-74239523D01*
X56809000Y-74334761D01*
X56761380Y-74477619D01*
X56761380Y-74572857D01*
X56809000Y-74715714D01*
X56856619Y-74763333D01*
X56761380Y-75096666D02*
X56761380Y-75715714D01*
X57142333Y-75382380D01*
X57142333Y-75525238D01*
X57189952Y-75620476D01*
X57237571Y-75668095D01*
X57332809Y-75715714D01*
X57570904Y-75715714D01*
X57666142Y-75668095D01*
X57713761Y-75620476D01*
X57761380Y-75525238D01*
X57761380Y-75239523D01*
X57713761Y-75144285D01*
X57666142Y-75096666D01*
%TO.C,SW1*%
X34127781Y-37384999D02*
X34195124Y-37250312D01*
X34363483Y-37081953D01*
X34464498Y-37048281D01*
X34531842Y-37048281D01*
X34632857Y-37081953D01*
X34700200Y-37149296D01*
X34733872Y-37250312D01*
X34733872Y-37317655D01*
X34700200Y-37418670D01*
X34599185Y-37587029D01*
X34565513Y-37688044D01*
X34565513Y-37755388D01*
X34599185Y-37856403D01*
X34666529Y-37923747D01*
X34767544Y-37957418D01*
X34834887Y-37957418D01*
X34935903Y-37923747D01*
X35104261Y-37755388D01*
X35171605Y-37620701D01*
X35440979Y-37418670D02*
X34902231Y-36543205D01*
X35541994Y-36913594D01*
X35171605Y-36273831D01*
X36047070Y-36812579D01*
X35979727Y-35465709D02*
X35575666Y-35869770D01*
X35777696Y-35667739D02*
X36484803Y-36374846D01*
X36316444Y-36341174D01*
X36181757Y-36341174D01*
X36080742Y-36374846D01*
%TO.C,D2*%
X68667855Y-42997380D02*
X68667855Y-41997380D01*
X68429760Y-41997380D01*
X68286902Y-42045000D01*
X68191664Y-42140238D01*
X68144045Y-42235476D01*
X68096426Y-42425952D01*
X68096426Y-42568809D01*
X68144045Y-42759285D01*
X68191664Y-42854523D01*
X68286902Y-42949761D01*
X68429760Y-42997380D01*
X68667855Y-42997380D01*
X67715474Y-42092619D02*
X67667855Y-42045000D01*
X67572617Y-41997380D01*
X67334521Y-41997380D01*
X67239283Y-42045000D01*
X67191664Y-42092619D01*
X67144045Y-42187857D01*
X67144045Y-42283095D01*
X67191664Y-42425952D01*
X67763093Y-42997380D01*
X67144045Y-42997380D01*
D11*
%TO.C,C1*%
X58221200Y-51123964D02*
X58221200Y-51339636D01*
X57501200Y-51123964D02*
X57501200Y-51339636D01*
%TO.C,U1*%
X54197800Y-61072400D02*
X50297800Y-61072400D01*
X50297800Y-61072400D02*
X50297800Y-56072400D01*
X50297800Y-56072400D02*
X54197800Y-56072400D01*
X54197800Y-56072400D02*
X54197800Y-61072400D01*
%TO.C,C4*%
X27956637Y-52381200D02*
X33712200Y-52381200D01*
X26892200Y-51316763D02*
X27956637Y-52381200D01*
X27956637Y-45561200D02*
X33712200Y-45561200D01*
X26892200Y-51316763D02*
X26892200Y-50031200D01*
X33712200Y-45561200D02*
X33712200Y-47911200D01*
X26892200Y-46625637D02*
X27956637Y-45561200D01*
X25864700Y-50818700D02*
X26652200Y-50818700D01*
X33712200Y-52381200D02*
X33712200Y-50031200D01*
X26258450Y-51212450D02*
X26258450Y-50424950D01*
X26892200Y-46625637D02*
X26892200Y-47911200D01*
%TO.C,C6*%
X70883900Y-69399500D02*
X70096400Y-69399500D01*
X69856400Y-73592563D02*
X69856400Y-72307000D01*
X69856400Y-68901437D02*
X68791963Y-67837000D01*
X70490150Y-69005750D02*
X70490150Y-69793250D01*
X69856400Y-73592563D02*
X68791963Y-74657000D01*
X68791963Y-74657000D02*
X63036400Y-74657000D01*
X69856400Y-68901437D02*
X69856400Y-70187000D01*
X63036400Y-67837000D02*
X63036400Y-70187000D01*
X63036400Y-74657000D02*
X63036400Y-72307000D01*
X68791963Y-67837000D02*
X63036400Y-67837000D01*
%TO.C,D1*%
X48525000Y-47025000D02*
X46725000Y-47025000D01*
X46725000Y-47025000D02*
X46725000Y-48225000D01*
X46725000Y-48225000D02*
X48525000Y-48225000D01*
X48525000Y-48225000D02*
X48525000Y-47025000D01*
%TO.C,BT1*%
X70181800Y-42314400D02*
X73101800Y-42314400D01*
X73101800Y-42314400D02*
X73101800Y-63634400D01*
X73101800Y-63634400D02*
X70181800Y-63634400D01*
X70181800Y-63634400D02*
X70181800Y-42314400D01*
X68991800Y-40384400D02*
X74281800Y-40384400D01*
X74281800Y-40384400D02*
X74281800Y-65524400D01*
X74281800Y-65524400D02*
X68991800Y-65524400D01*
X68991800Y-65524400D02*
X68991800Y-40384400D01*
X81578843Y-52984400D02*
G75*
G03*
X81578843Y-52984400I-10027043J0D01*
G01*
%TO.C,C5*%
X26762837Y-65208200D02*
X32518400Y-65208200D01*
X32518400Y-58388200D02*
X32518400Y-60738200D01*
X25698400Y-64143763D02*
X25698400Y-62858200D01*
X32518400Y-65208200D02*
X32518400Y-62858200D01*
X25698400Y-64143763D02*
X26762837Y-65208200D01*
X25698400Y-59452637D02*
X26762837Y-58388200D01*
X25064650Y-64039450D02*
X25064650Y-63251950D01*
X24670900Y-63645700D02*
X25458400Y-63645700D01*
X25698400Y-59452637D02*
X25698400Y-60738200D01*
X26762837Y-58388200D02*
X32518400Y-58388200D01*
%TO.C,C2*%
X40557100Y-76548100D02*
X40557100Y-75760600D01*
X36364037Y-75520600D02*
X37649600Y-75520600D01*
X41055163Y-75520600D02*
X39769600Y-75520600D01*
X35299600Y-74456163D02*
X35299600Y-68700600D01*
X41055163Y-75520600D02*
X42119600Y-74456163D01*
X35299600Y-68700600D02*
X37649600Y-68700600D01*
X42119600Y-68700600D02*
X39769600Y-68700600D01*
X42119600Y-74456163D02*
X42119600Y-68700600D01*
X36364037Y-75520600D02*
X35299600Y-74456163D01*
X40950850Y-76154350D02*
X40163350Y-76154350D01*
%TO.C,C3*%
X50613437Y-78340000D02*
X49549000Y-77275563D01*
X50613437Y-78340000D02*
X51899000Y-78340000D01*
X55304563Y-78340000D02*
X56369000Y-77275563D01*
X55304563Y-78340000D02*
X54019000Y-78340000D01*
X56369000Y-71520000D02*
X54019000Y-71520000D01*
X49549000Y-77275563D02*
X49549000Y-71520000D01*
X54806500Y-79367500D02*
X54806500Y-78580000D01*
X56369000Y-77275563D02*
X56369000Y-71520000D01*
X49549000Y-71520000D02*
X51899000Y-71520000D01*
X55200250Y-78973750D02*
X54412750Y-78973750D01*
%TO.C,SW1*%
X30447619Y-40122608D02*
X39640008Y-30930219D01*
X39640008Y-30930219D02*
X36811581Y-28101792D01*
X36811581Y-28101792D02*
X27619192Y-37294181D01*
X27619192Y-37294181D02*
X30447619Y-40122608D01*
%TO.C,D2*%
X58669760Y-47025000D02*
X56869760Y-47025000D01*
X56869760Y-47025000D02*
X56869760Y-48225000D01*
X56869760Y-48225000D02*
X58669760Y-48225000D01*
X58669760Y-48225000D02*
X58669760Y-47025000D01*
%TD*%
M02*
