%TF.GenerationSoftware,KiCad,Pcbnew,(6.0.5)*%
%TF.CreationDate,2023-06-02T13:35:43-04:00*%
%TF.ProjectId,Robocat Pin,526f626f-6361-4742-9050-696e2e6b6963,rev?*%
%TF.SameCoordinates,Original*%
%TF.FileFunction,Soldermask,Top*%
%TF.FilePolarity,Negative*%
%FSLAX46Y46*%
G04 Gerber Fmt 4.6, Leading zero omitted, Abs format (unit mm)*
G04 Created by KiCad (PCBNEW (6.0.5)) date 2023-06-02 13:35:43*
%MOMM*%
%LPD*%
G01*
G04 APERTURE LIST*
G04 APERTURE END LIST*
%TO.C,G\u002A\u002A\u002A*%
G36*
X67840846Y-55953665D02*
G01*
X68395003Y-55954663D01*
X68833896Y-55956259D01*
X71569291Y-55968812D01*
X70849769Y-56384541D01*
X70542012Y-56562207D01*
X70188997Y-56765732D01*
X69795014Y-56992658D01*
X69364351Y-57240525D01*
X68901296Y-57506874D01*
X68410139Y-57789246D01*
X67895168Y-58085182D01*
X67360672Y-58392224D01*
X66810940Y-58707911D01*
X66250259Y-59029786D01*
X65682920Y-59355389D01*
X65113210Y-59682261D01*
X64545419Y-60007943D01*
X63983834Y-60329976D01*
X63432746Y-60645901D01*
X62896441Y-60953260D01*
X62379210Y-61249592D01*
X61885341Y-61532439D01*
X61419122Y-61799342D01*
X60984842Y-62047843D01*
X60586791Y-62275481D01*
X60229255Y-62479798D01*
X59916526Y-62658336D01*
X59652890Y-62808634D01*
X59442636Y-62928234D01*
X59290055Y-63014677D01*
X59199433Y-63065504D01*
X59174347Y-63078881D01*
X59141802Y-63053947D01*
X59057214Y-62985105D01*
X58930095Y-62880208D01*
X58769954Y-62747110D01*
X58586301Y-62593661D01*
X58559135Y-62570901D01*
X58237866Y-62300878D01*
X57918180Y-62030747D01*
X57606764Y-61766268D01*
X57310306Y-61513197D01*
X57035492Y-61277293D01*
X56789011Y-61064315D01*
X56577549Y-60880020D01*
X56407794Y-60730166D01*
X56286433Y-60620511D01*
X56220723Y-60557417D01*
X56099770Y-60429571D01*
X56200152Y-60348397D01*
X56267987Y-60297486D01*
X56399235Y-60202968D01*
X56591021Y-60066853D01*
X56840464Y-59891149D01*
X57144688Y-59677866D01*
X57500813Y-59429013D01*
X57905963Y-59146599D01*
X58357259Y-58832633D01*
X58851822Y-58489124D01*
X59386776Y-58118081D01*
X59959241Y-57721513D01*
X60423994Y-57399885D01*
X62450123Y-55998307D01*
X64274312Y-55971007D01*
X64653070Y-55966237D01*
X65098568Y-55962156D01*
X65596910Y-55958810D01*
X66134203Y-55956242D01*
X66696552Y-55954499D01*
X67270065Y-55953625D01*
X67840846Y-55953665D01*
G37*
G36*
X44030125Y-52903985D02*
G01*
X44002534Y-52994127D01*
X43982397Y-53052384D01*
X43937916Y-53176328D01*
X43872561Y-53356440D01*
X43789806Y-53583200D01*
X43693121Y-53847088D01*
X43585978Y-54138583D01*
X43508021Y-54350148D01*
X43041099Y-55616028D01*
X42195918Y-55642183D01*
X42030747Y-55646013D01*
X41792214Y-55649675D01*
X41487590Y-55653127D01*
X41124146Y-55656329D01*
X40709156Y-55659241D01*
X40249891Y-55661821D01*
X39753622Y-55664030D01*
X39227623Y-55665827D01*
X38679164Y-55667171D01*
X38115518Y-55668021D01*
X37543957Y-55668337D01*
X37508353Y-55668338D01*
X33665969Y-55668338D01*
X33739985Y-55498070D01*
X33799326Y-55365076D01*
X33886383Y-55174577D01*
X33994264Y-54941240D01*
X34116079Y-54679734D01*
X34244940Y-54404727D01*
X34373957Y-54130887D01*
X34496239Y-53872882D01*
X34604897Y-53645380D01*
X34693041Y-53463049D01*
X34748583Y-53350790D01*
X34909948Y-53031875D01*
X35284383Y-53008463D01*
X35414372Y-53002452D01*
X35617301Y-52995868D01*
X35885476Y-52988822D01*
X36211207Y-52981426D01*
X36586800Y-52973792D01*
X37004562Y-52966031D01*
X37456803Y-52958255D01*
X37935828Y-52950575D01*
X38433946Y-52943104D01*
X38943464Y-52935953D01*
X39456690Y-52929233D01*
X39965932Y-52923056D01*
X40463496Y-52917535D01*
X40941692Y-52912779D01*
X41392825Y-52908902D01*
X41809204Y-52906015D01*
X42183137Y-52904229D01*
X42505424Y-52903655D01*
X44030125Y-52903985D01*
G37*
G36*
X53086040Y-38310679D02*
G01*
X53448770Y-38609205D01*
X53851234Y-38941251D01*
X54290505Y-39304370D01*
X54763655Y-39696112D01*
X55267754Y-40114026D01*
X55799874Y-40555663D01*
X56357087Y-41018573D01*
X56936465Y-41500307D01*
X57535078Y-41998415D01*
X58149999Y-42510447D01*
X58778298Y-43033953D01*
X59417049Y-43566484D01*
X60063321Y-44105591D01*
X60714187Y-44648822D01*
X61366718Y-45193730D01*
X62017985Y-45737863D01*
X62665061Y-46278772D01*
X63305016Y-46814008D01*
X63934923Y-47341121D01*
X64551852Y-47857661D01*
X65152876Y-48361179D01*
X65735066Y-48849224D01*
X66295493Y-49319347D01*
X66831229Y-49769099D01*
X67339345Y-50196029D01*
X67816913Y-50597689D01*
X68261005Y-50971627D01*
X68668693Y-51315395D01*
X69037046Y-51626543D01*
X69363138Y-51902621D01*
X69644040Y-52141179D01*
X69876822Y-52339768D01*
X70058558Y-52495938D01*
X70186318Y-52607239D01*
X70257174Y-52671222D01*
X70271358Y-52686457D01*
X70231307Y-52690923D01*
X70112203Y-52694190D01*
X69915619Y-52696267D01*
X69643128Y-52697160D01*
X69296301Y-52696876D01*
X68876713Y-52695424D01*
X68385936Y-52692809D01*
X67825542Y-52689040D01*
X67197105Y-52684124D01*
X66502197Y-52678067D01*
X65742391Y-52670877D01*
X64919260Y-52662561D01*
X64808342Y-52661404D01*
X64412871Y-52657682D01*
X63946123Y-52654006D01*
X63417455Y-52650419D01*
X62836227Y-52646962D01*
X62211795Y-52643677D01*
X61553517Y-52640606D01*
X60870751Y-52637790D01*
X60172855Y-52635272D01*
X59469188Y-52633092D01*
X58769106Y-52631293D01*
X58081967Y-52629916D01*
X57581437Y-52629187D01*
X52894532Y-52623543D01*
X52894532Y-38153306D01*
X53086040Y-38310679D01*
G37*
G36*
X43666938Y-56381909D02*
G01*
X43802700Y-56476772D01*
X43997544Y-56612907D01*
X44244588Y-56785506D01*
X44536948Y-56989760D01*
X44867741Y-57220860D01*
X45230083Y-57473997D01*
X45617092Y-57744363D01*
X46021885Y-58027149D01*
X46437577Y-58317546D01*
X46790400Y-58564020D01*
X47193091Y-58845452D01*
X47578052Y-59114729D01*
X47939967Y-59368119D01*
X48273522Y-59601891D01*
X48573402Y-59812312D01*
X48834294Y-59995651D01*
X49050883Y-60148175D01*
X49217853Y-60266153D01*
X49329891Y-60345852D01*
X49381683Y-60383541D01*
X49383078Y-60384641D01*
X49472109Y-60456279D01*
X48757025Y-61077056D01*
X48529492Y-61273516D01*
X48281812Y-61485508D01*
X48021732Y-61706571D01*
X47756997Y-61930245D01*
X47495351Y-62150070D01*
X47244540Y-62359586D01*
X47012309Y-62552332D01*
X46806404Y-62721848D01*
X46634568Y-62861675D01*
X46504548Y-62965351D01*
X46424089Y-63026416D01*
X46405025Y-63038867D01*
X46342717Y-63037363D01*
X46226176Y-62992954D01*
X46051111Y-62903821D01*
X45939770Y-62841616D01*
X45504398Y-62593062D01*
X45034352Y-62324448D01*
X44533736Y-62038131D01*
X44006651Y-61736471D01*
X43457202Y-61421824D01*
X42889489Y-61096549D01*
X42307617Y-60763005D01*
X41715688Y-60423548D01*
X41117804Y-60080537D01*
X40518068Y-59736330D01*
X39920583Y-59393285D01*
X39329452Y-59053760D01*
X38748776Y-58720113D01*
X38182660Y-58394702D01*
X37635204Y-58079886D01*
X37110513Y-57778021D01*
X36612689Y-57491466D01*
X36145835Y-57222580D01*
X35714052Y-56973720D01*
X35321445Y-56747244D01*
X34972115Y-56545510D01*
X34670165Y-56370876D01*
X34419698Y-56225701D01*
X34224816Y-56112342D01*
X34089623Y-56033157D01*
X34018221Y-55990504D01*
X34007818Y-55983706D01*
X34041974Y-55978874D01*
X34152282Y-55974276D01*
X34334260Y-55969946D01*
X34583425Y-55965918D01*
X34895294Y-55962229D01*
X35265384Y-55958912D01*
X35689214Y-55956002D01*
X36162300Y-55953535D01*
X36680160Y-55951544D01*
X37238311Y-55950065D01*
X37832271Y-55949133D01*
X38457556Y-55948782D01*
X38508319Y-55948780D01*
X43047121Y-55948780D01*
X43666938Y-56381909D01*
G37*
G36*
X67127023Y-48599731D02*
G01*
X67197529Y-48658608D01*
X67247299Y-48707376D01*
X67299443Y-48766921D01*
X67390282Y-48878722D01*
X67513835Y-49034900D01*
X67664124Y-49227572D01*
X67835170Y-49448857D01*
X68020994Y-49690873D01*
X68215616Y-49945739D01*
X68413058Y-50205573D01*
X68607341Y-50462494D01*
X68792486Y-50708620D01*
X68962512Y-50936069D01*
X69111443Y-51136961D01*
X69233297Y-51303413D01*
X69322097Y-51427544D01*
X69371863Y-51501472D01*
X69380315Y-51519095D01*
X69342394Y-51507035D01*
X69271060Y-51456455D01*
X69261204Y-51448290D01*
X69206924Y-51402738D01*
X69098768Y-51312101D01*
X68944532Y-51182909D01*
X68752017Y-51021693D01*
X68529020Y-50834983D01*
X68283339Y-50629310D01*
X68057301Y-50440105D01*
X66956409Y-49518654D01*
X66984025Y-49103517D01*
X67000892Y-48871953D01*
X67018764Y-48713107D01*
X67042502Y-48619665D01*
X67076967Y-48584312D01*
X67127023Y-48599731D01*
G37*
G36*
X54248734Y-59444285D02*
G01*
X55333739Y-60255562D01*
X54910405Y-60280700D01*
X54765959Y-60286997D01*
X54562979Y-60292540D01*
X54309888Y-60297328D01*
X54015111Y-60301361D01*
X53687071Y-60304638D01*
X53334192Y-60307157D01*
X52964897Y-60308918D01*
X52587610Y-60309920D01*
X52210755Y-60310161D01*
X51842756Y-60309641D01*
X51492036Y-60308359D01*
X51167019Y-60306314D01*
X50876129Y-60303504D01*
X50627789Y-60299930D01*
X50430423Y-60295589D01*
X50292455Y-60290481D01*
X50222309Y-60284605D01*
X50215437Y-60281242D01*
X50260147Y-60245549D01*
X50359258Y-60169007D01*
X50502872Y-60059118D01*
X50681089Y-59923383D01*
X50884012Y-59769304D01*
X51101742Y-59604382D01*
X51324379Y-59436118D01*
X51542026Y-59272014D01*
X51744783Y-59119571D01*
X51922753Y-58986292D01*
X52011092Y-58920447D01*
X52397651Y-58633007D01*
X53163730Y-58633007D01*
X54248734Y-59444285D01*
G37*
G36*
X62989829Y-52905928D02*
G01*
X63408959Y-52907777D01*
X63891482Y-52911080D01*
X64440368Y-52915839D01*
X65058585Y-52922057D01*
X65749100Y-52929736D01*
X66514882Y-52938878D01*
X67187072Y-52947290D01*
X67705880Y-52954239D01*
X68201561Y-52961552D01*
X68668188Y-52969101D01*
X69099834Y-52976758D01*
X69490570Y-52984397D01*
X69834471Y-52991891D01*
X70125608Y-52999112D01*
X70358054Y-53005935D01*
X70525882Y-53012232D01*
X70623164Y-53017876D01*
X70646119Y-53021376D01*
X70674018Y-53067882D01*
X70728725Y-53176024D01*
X70805693Y-53335737D01*
X70900376Y-53536956D01*
X71008227Y-53769616D01*
X71124701Y-54023651D01*
X71245250Y-54288996D01*
X71365328Y-54555584D01*
X71480389Y-54813351D01*
X71585886Y-55052232D01*
X71677273Y-55262160D01*
X71750003Y-55433070D01*
X71799529Y-55554897D01*
X71821307Y-55617575D01*
X71821544Y-55623663D01*
X71776835Y-55628787D01*
X71654856Y-55634269D01*
X71458970Y-55640066D01*
X71192541Y-55646132D01*
X70858933Y-55652425D01*
X70461508Y-55658900D01*
X70003631Y-55665512D01*
X69488665Y-55672219D01*
X68919974Y-55678974D01*
X68300921Y-55685736D01*
X67634870Y-55692458D01*
X66925185Y-55699098D01*
X66175228Y-55705611D01*
X65388364Y-55711953D01*
X64693447Y-55717173D01*
X62562680Y-55732659D01*
X62522486Y-55630388D01*
X62457794Y-55462401D01*
X62378034Y-55249946D01*
X62286912Y-55003396D01*
X62188131Y-54733126D01*
X62085397Y-54449506D01*
X61982414Y-54162912D01*
X61882886Y-53883715D01*
X61790520Y-53622288D01*
X61709018Y-53389005D01*
X61642086Y-53194238D01*
X61593428Y-53048361D01*
X61566750Y-52961746D01*
X61562786Y-52943244D01*
X61581621Y-52933534D01*
X61640103Y-52925261D01*
X61741202Y-52918428D01*
X61887886Y-52913036D01*
X62083122Y-52909088D01*
X62329879Y-52906586D01*
X62631125Y-52905532D01*
X62989829Y-52905928D01*
G37*
G36*
X38476039Y-48617313D02*
G01*
X38501914Y-48720693D01*
X38517805Y-48845876D01*
X38535746Y-49026088D01*
X38554848Y-49210445D01*
X38567218Y-49324921D01*
X38590261Y-49531819D01*
X37447079Y-50479204D01*
X37184317Y-50696407D01*
X36938749Y-50898334D01*
X36717791Y-51078969D01*
X36528859Y-51232293D01*
X36379368Y-51352289D01*
X36276734Y-51432940D01*
X36228371Y-51468228D01*
X36228097Y-51468382D01*
X36205290Y-51465464D01*
X36233499Y-51405076D01*
X36308732Y-51293927D01*
X36414698Y-51149743D01*
X36556372Y-50960357D01*
X36725794Y-50736116D01*
X36915003Y-50487370D01*
X37116040Y-50224465D01*
X37320944Y-49957750D01*
X37521756Y-49697572D01*
X37710516Y-49454279D01*
X37879263Y-49238219D01*
X38020038Y-49059741D01*
X38124881Y-48929191D01*
X38165119Y-48880653D01*
X38274391Y-48755883D01*
X38367808Y-48656635D01*
X38431051Y-48597810D01*
X38445920Y-48588474D01*
X38476039Y-48617313D01*
G37*
G36*
X57222837Y-61807234D02*
G01*
X57563230Y-62094442D01*
X57846641Y-62334351D01*
X58077736Y-62531313D01*
X58261183Y-62689676D01*
X58401646Y-62813793D01*
X58503792Y-62908012D01*
X58572287Y-62976685D01*
X58611796Y-63024161D01*
X58626987Y-63054792D01*
X58622525Y-63072927D01*
X58603076Y-63082917D01*
X58593631Y-63085286D01*
X58540472Y-63088267D01*
X58411279Y-63091213D01*
X58210655Y-63094100D01*
X57943199Y-63096906D01*
X57613515Y-63099606D01*
X57226202Y-63102178D01*
X56785863Y-63104599D01*
X56297099Y-63106845D01*
X55764511Y-63108894D01*
X55192701Y-63110721D01*
X54586270Y-63112304D01*
X53949820Y-63113620D01*
X53287952Y-63114645D01*
X52633385Y-63115333D01*
X46788270Y-63120073D01*
X46888147Y-63025881D01*
X46939217Y-62980991D01*
X47045301Y-62890310D01*
X47199631Y-62759538D01*
X47395442Y-62594378D01*
X47625965Y-62400529D01*
X47884435Y-62183691D01*
X48164083Y-61949566D01*
X48378977Y-61769958D01*
X49769929Y-60608228D01*
X52753421Y-60581359D01*
X55736913Y-60554489D01*
X57222837Y-61807234D01*
G37*
G36*
X59004922Y-37811441D02*
G01*
X59250467Y-38135698D01*
X59481952Y-38441356D01*
X59694737Y-38722291D01*
X59884183Y-38972381D01*
X60045650Y-39185500D01*
X60174500Y-39355525D01*
X60266092Y-39476332D01*
X60315788Y-39541798D01*
X60323040Y-39551304D01*
X60312691Y-39582099D01*
X60254370Y-39643837D01*
X60144713Y-39739266D01*
X59980361Y-39871130D01*
X59757953Y-40042178D01*
X59474127Y-40255154D01*
X59338800Y-40355546D01*
X58968092Y-40628799D01*
X58630621Y-40875509D01*
X58331563Y-41091976D01*
X58076091Y-41274504D01*
X57869382Y-41419394D01*
X57716608Y-41522947D01*
X57625149Y-41580230D01*
X57578312Y-41565930D01*
X57480375Y-41508162D01*
X57342522Y-41414346D01*
X57175938Y-41291903D01*
X57083747Y-41221003D01*
X56856738Y-41042271D01*
X56599986Y-40837334D01*
X56319835Y-40611477D01*
X56022628Y-40369984D01*
X55714709Y-40118138D01*
X55402420Y-39861225D01*
X55092104Y-39604529D01*
X54790106Y-39353334D01*
X54502768Y-39112923D01*
X54236433Y-38888583D01*
X53997445Y-38685596D01*
X53792148Y-38509247D01*
X53626883Y-38364820D01*
X53507996Y-38257600D01*
X53441828Y-38192872D01*
X53430246Y-38177432D01*
X53460328Y-38147113D01*
X53552343Y-38089373D01*
X53695049Y-38010446D01*
X53877201Y-37916570D01*
X54072688Y-37821059D01*
X54262782Y-37730778D01*
X54498876Y-37619228D01*
X54771840Y-37490676D01*
X55072544Y-37349387D01*
X55391857Y-37199627D01*
X55720648Y-37045664D01*
X56049787Y-36891763D01*
X56370143Y-36742190D01*
X56672585Y-36601212D01*
X56947984Y-36473094D01*
X57187208Y-36362103D01*
X57381127Y-36272505D01*
X57520609Y-36208566D01*
X57596526Y-36174552D01*
X57597350Y-36174199D01*
X57724135Y-36120000D01*
X59004922Y-37811441D01*
G37*
G36*
X47847264Y-36158017D02*
G01*
X47889839Y-36169041D01*
X47952996Y-36191089D01*
X48041603Y-36226299D01*
X48160526Y-36276809D01*
X48314631Y-36344759D01*
X48508785Y-36432287D01*
X48747854Y-36541530D01*
X49036705Y-36674629D01*
X49380203Y-36833721D01*
X49783217Y-37020945D01*
X50250612Y-37238440D01*
X50656913Y-37427639D01*
X50958017Y-37568381D01*
X51240726Y-37701491D01*
X51495467Y-37822388D01*
X51712667Y-37926492D01*
X51882753Y-38009221D01*
X51996152Y-38065996D01*
X52037165Y-38088133D01*
X52167576Y-38166540D01*
X51835400Y-38454111D01*
X51602656Y-38654664D01*
X51341036Y-38878469D01*
X51056632Y-39120438D01*
X50755538Y-39375487D01*
X50443847Y-39638530D01*
X50127651Y-39904482D01*
X49813043Y-40168257D01*
X49506118Y-40424770D01*
X49212967Y-40668935D01*
X48939683Y-40895667D01*
X48692361Y-41099881D01*
X48477092Y-41276491D01*
X48299970Y-41420411D01*
X48167087Y-41526557D01*
X48084538Y-41589842D01*
X48058804Y-41606193D01*
X48017952Y-41584676D01*
X47921204Y-41524691D01*
X47779163Y-41433090D01*
X47602431Y-41316722D01*
X47401612Y-41182437D01*
X47371074Y-41161853D01*
X47160437Y-41018103D01*
X46918502Y-40850311D01*
X46657077Y-40666921D01*
X46387969Y-40476376D01*
X46122986Y-40287118D01*
X45873935Y-40107590D01*
X45652623Y-39946234D01*
X45470859Y-39811495D01*
X45340448Y-39711814D01*
X45316389Y-39692664D01*
X45217135Y-39612595D01*
X45325617Y-39449701D01*
X45364461Y-39395563D01*
X45445916Y-39285146D01*
X45564134Y-39126216D01*
X45713272Y-38926539D01*
X45887483Y-38693883D01*
X46080923Y-38436013D01*
X46287745Y-38160696D01*
X46502105Y-37875697D01*
X46718156Y-37588784D01*
X46930054Y-37307723D01*
X47131953Y-37040279D01*
X47318006Y-36794220D01*
X47482370Y-36577311D01*
X47619198Y-36397319D01*
X47722645Y-36262010D01*
X47786866Y-36179151D01*
X47794373Y-36169700D01*
X47804398Y-36160485D01*
X47820406Y-36155878D01*
X47847264Y-36158017D01*
G37*
G36*
X53539556Y-55761577D02*
G01*
X53533258Y-55981958D01*
X53516510Y-56217049D01*
X53492457Y-56426820D01*
X53482401Y-56489632D01*
X53458273Y-56617343D01*
X53423293Y-56792331D01*
X53380282Y-57001473D01*
X53332058Y-57231647D01*
X53281443Y-57469730D01*
X53231256Y-57702601D01*
X53184317Y-57917138D01*
X53143446Y-58100218D01*
X53111463Y-58238719D01*
X53091187Y-58319518D01*
X53085881Y-58334793D01*
X53028975Y-58351465D01*
X52921169Y-58363022D01*
X52792112Y-58367999D01*
X52671454Y-58364934D01*
X52612700Y-58358142D01*
X52471978Y-58332534D01*
X52281369Y-57471386D01*
X52222580Y-57199360D01*
X52168066Y-56935130D01*
X52121042Y-56695224D01*
X52084723Y-56496172D01*
X52062325Y-56354499D01*
X52059234Y-56329588D01*
X52046710Y-56155817D01*
X52044180Y-55965928D01*
X52050528Y-55779245D01*
X52064642Y-55615091D01*
X52085406Y-55492791D01*
X52110970Y-55432315D01*
X52161918Y-55419795D01*
X52279536Y-55406678D01*
X52449876Y-55394037D01*
X52658993Y-55382943D01*
X52844135Y-55375926D01*
X53539612Y-55354028D01*
X53539556Y-55761577D01*
G37*
G36*
X61323809Y-53177124D02*
G01*
X61414139Y-53415443D01*
X61512969Y-53681017D01*
X61616844Y-53964083D01*
X61722308Y-54254877D01*
X61825908Y-54543636D01*
X61924189Y-54820597D01*
X62013696Y-55075997D01*
X62090975Y-55300072D01*
X62152572Y-55483060D01*
X62195032Y-55615198D01*
X62214901Y-55686721D01*
X62215303Y-55696697D01*
X62193668Y-55699016D01*
X62137138Y-55702827D01*
X62042044Y-55708308D01*
X61904718Y-55715637D01*
X61721492Y-55724994D01*
X61488699Y-55736555D01*
X61202670Y-55750500D01*
X60859737Y-55767006D01*
X60456233Y-55786252D01*
X59988488Y-55808416D01*
X59452836Y-55833676D01*
X58845608Y-55862210D01*
X58163136Y-55894198D01*
X57833421Y-55909629D01*
X57547996Y-55923035D01*
X57203863Y-55939283D01*
X56822856Y-55957337D01*
X56426809Y-55976161D01*
X56037555Y-55994719D01*
X55717117Y-56010048D01*
X55391302Y-56025128D01*
X55074842Y-56038783D01*
X54781366Y-56050498D01*
X54524499Y-56059759D01*
X54317869Y-56066054D01*
X54175103Y-56068868D01*
X54153355Y-56068969D01*
X53818914Y-56068969D01*
X53830453Y-55681272D01*
X53841993Y-55293575D01*
X55132151Y-54879238D01*
X55499744Y-54761342D01*
X55900096Y-54633221D01*
X56326154Y-54497112D01*
X56770860Y-54355254D01*
X57227158Y-54209884D01*
X57687994Y-54063242D01*
X58146310Y-53917565D01*
X58595052Y-53775092D01*
X59027163Y-53638060D01*
X59435587Y-53508709D01*
X59813269Y-53389276D01*
X60153152Y-53281999D01*
X60448181Y-53189117D01*
X60691300Y-53112867D01*
X60875453Y-53055489D01*
X60993584Y-53019220D01*
X61026704Y-53009410D01*
X61236496Y-52949474D01*
X61323809Y-53177124D01*
G37*
G36*
X44440852Y-52996020D02*
G01*
X44556645Y-53029699D01*
X44729157Y-53082075D01*
X44948419Y-53150076D01*
X45204459Y-53230629D01*
X45487306Y-53320661D01*
X45572468Y-53347959D01*
X46196638Y-53548415D01*
X46879215Y-53767757D01*
X47601916Y-54000105D01*
X48346463Y-54239579D01*
X49094574Y-54480300D01*
X49827969Y-54716387D01*
X50528368Y-54941960D01*
X50611780Y-54968832D01*
X51816488Y-55356960D01*
X51791066Y-55598652D01*
X51777067Y-55750752D01*
X51767834Y-55887539D01*
X51765643Y-55954657D01*
X51765643Y-56068969D01*
X51332231Y-56061009D01*
X51111335Y-56056257D01*
X50881049Y-56050166D01*
X50677352Y-56043729D01*
X50596437Y-56040681D01*
X50450448Y-56034492D01*
X50236510Y-56025117D01*
X49962496Y-56012918D01*
X49636279Y-55998257D01*
X49265733Y-55981497D01*
X48858730Y-55963001D01*
X48423146Y-55943132D01*
X47966852Y-55922252D01*
X47497722Y-55900723D01*
X47023630Y-55878910D01*
X46552450Y-55857173D01*
X46092053Y-55835877D01*
X45650315Y-55815383D01*
X45235108Y-55796054D01*
X44854305Y-55778253D01*
X44515781Y-55762343D01*
X44227408Y-55748686D01*
X43997059Y-55737645D01*
X43832610Y-55729583D01*
X43749826Y-55725304D01*
X43552030Y-55713148D01*
X43422395Y-55700939D01*
X43348492Y-55686043D01*
X43317889Y-55665830D01*
X43318155Y-55637665D01*
X43319456Y-55634170D01*
X43339855Y-55580956D01*
X43384861Y-55462754D01*
X43450674Y-55289569D01*
X43533496Y-55071402D01*
X43629528Y-54818256D01*
X43734972Y-54540134D01*
X43763748Y-54464207D01*
X43905842Y-54089927D01*
X44022747Y-53783992D01*
X44117338Y-53539631D01*
X44192487Y-53350072D01*
X44251068Y-53208543D01*
X44295955Y-53108272D01*
X44330019Y-53042487D01*
X44356136Y-53004417D01*
X44377177Y-52987289D01*
X44391750Y-52984111D01*
X44440852Y-52996020D01*
G37*
G36*
X43871061Y-56002499D02*
G01*
X44045967Y-56007357D01*
X44272540Y-56015204D01*
X44541155Y-56025718D01*
X44842190Y-56038575D01*
X45036931Y-56047398D01*
X45344331Y-56061601D01*
X45717886Y-56078826D01*
X46143201Y-56098413D01*
X46605883Y-56119697D01*
X47091537Y-56142019D01*
X47585767Y-56164716D01*
X48074181Y-56187126D01*
X48540247Y-56208489D01*
X49121142Y-56235169D01*
X49626716Y-56258569D01*
X50062202Y-56278980D01*
X50432833Y-56296694D01*
X50743842Y-56312001D01*
X51000463Y-56325193D01*
X51207929Y-56336561D01*
X51371473Y-56346396D01*
X51496328Y-56354989D01*
X51587729Y-56362632D01*
X51650907Y-56369615D01*
X51691096Y-56376230D01*
X51713530Y-56382767D01*
X51718509Y-56385304D01*
X51738072Y-56429711D01*
X51771688Y-56541256D01*
X51816439Y-56708749D01*
X51869405Y-56920997D01*
X51927667Y-57166807D01*
X51965126Y-57330957D01*
X52024615Y-57594601D01*
X52079071Y-57834297D01*
X52125782Y-58038237D01*
X52162035Y-58194615D01*
X52185117Y-58291623D01*
X52191495Y-58316348D01*
X52184042Y-58347853D01*
X52145109Y-58399120D01*
X52070338Y-58473798D01*
X51955374Y-58575535D01*
X51795859Y-58707982D01*
X51587436Y-58874787D01*
X51325748Y-59079600D01*
X51006438Y-59326070D01*
X50766176Y-59510149D01*
X50452308Y-59748215D01*
X50198009Y-59936886D01*
X50000782Y-60077915D01*
X49858127Y-60173054D01*
X49767544Y-60224056D01*
X49733007Y-60234427D01*
X49682140Y-60212560D01*
X49582870Y-60154971D01*
X49452707Y-60072095D01*
X49386913Y-60028108D01*
X48986914Y-59755655D01*
X48570520Y-59470203D01*
X48142683Y-59175266D01*
X47708358Y-58874358D01*
X47272496Y-58570996D01*
X46840052Y-58268692D01*
X46415978Y-57970963D01*
X46005227Y-57681323D01*
X45612753Y-57403287D01*
X45243508Y-57140370D01*
X44902446Y-56896086D01*
X44594520Y-56673950D01*
X44324683Y-56477478D01*
X44097889Y-56310183D01*
X43919089Y-56175582D01*
X43793238Y-56077188D01*
X43725288Y-56018516D01*
X43714740Y-56003042D01*
X43757444Y-56000953D01*
X43871061Y-56002499D01*
G37*
G36*
X52590158Y-38280288D02*
G01*
X52592677Y-38395798D01*
X52595108Y-38583413D01*
X52597435Y-38839121D01*
X52599645Y-39158913D01*
X52601725Y-39538777D01*
X52603660Y-39974702D01*
X52605436Y-40462679D01*
X52607040Y-40998695D01*
X52608458Y-41578741D01*
X52609676Y-42198805D01*
X52610680Y-42854877D01*
X52611456Y-43542946D01*
X52611991Y-44259002D01*
X52612270Y-44999032D01*
X52612310Y-45405895D01*
X52612310Y-52570897D01*
X51940633Y-52597220D01*
X51789560Y-52601534D01*
X51565982Y-52605648D01*
X51278026Y-52609505D01*
X50933822Y-52613044D01*
X50541498Y-52616208D01*
X50109182Y-52618937D01*
X49645005Y-52621172D01*
X49157094Y-52622855D01*
X48653578Y-52623926D01*
X48201188Y-52624317D01*
X47722068Y-52624743D01*
X47202089Y-52625763D01*
X46646191Y-52627340D01*
X46059316Y-52629433D01*
X45446405Y-52632005D01*
X44812398Y-52635016D01*
X44162236Y-52638427D01*
X43500860Y-52642198D01*
X42833211Y-52646293D01*
X42164230Y-52650670D01*
X41498857Y-52655291D01*
X40842033Y-52660118D01*
X40198700Y-52665111D01*
X39573798Y-52670232D01*
X38972267Y-52675441D01*
X38399049Y-52680699D01*
X37859085Y-52685968D01*
X37357315Y-52691208D01*
X36898681Y-52696381D01*
X36488122Y-52701447D01*
X36130580Y-52706368D01*
X35830996Y-52711105D01*
X35594310Y-52715618D01*
X35425464Y-52719869D01*
X35329398Y-52723818D01*
X35308862Y-52725990D01*
X35248891Y-52729959D01*
X35235485Y-52714010D01*
X35234999Y-52707973D01*
X35235655Y-52701647D01*
X35240620Y-52692362D01*
X35253063Y-52677446D01*
X35276152Y-52654231D01*
X35313055Y-52620044D01*
X35366940Y-52572215D01*
X35440976Y-52508075D01*
X35538331Y-52424952D01*
X35662172Y-52320176D01*
X35815669Y-52191076D01*
X36001989Y-52034982D01*
X36224301Y-51849223D01*
X36485773Y-51631129D01*
X36789573Y-51378028D01*
X37138869Y-51087252D01*
X37536829Y-50756129D01*
X37986622Y-50381988D01*
X38491416Y-49962159D01*
X39054380Y-49493972D01*
X39146278Y-49417544D01*
X39642250Y-49004969D01*
X40191298Y-48548071D01*
X40784756Y-48054069D01*
X41413961Y-47530178D01*
X42070249Y-46983619D01*
X42744956Y-46421607D01*
X43429418Y-45851362D01*
X44114971Y-45280101D01*
X44792951Y-44715041D01*
X45454693Y-44163401D01*
X46091534Y-43632398D01*
X46694811Y-43129250D01*
X46887231Y-42968734D01*
X47583556Y-42387846D01*
X48220760Y-41856316D01*
X48801465Y-41371970D01*
X49328295Y-40932633D01*
X49803871Y-40536128D01*
X50230817Y-40180281D01*
X50611757Y-39862916D01*
X50949311Y-39581858D01*
X51246104Y-39334931D01*
X51504759Y-39119960D01*
X51727897Y-38934769D01*
X51918143Y-38777184D01*
X52078118Y-38645028D01*
X52210446Y-38536127D01*
X52317750Y-38448304D01*
X52402651Y-38379386D01*
X52467775Y-38327195D01*
X52515742Y-38289558D01*
X52549176Y-38264298D01*
X52570700Y-38249240D01*
X52582936Y-38242208D01*
X52587563Y-38240894D01*
X52590158Y-38280288D01*
G37*
G36*
X36953118Y-30445281D02*
G01*
X36997758Y-30484415D01*
X37063823Y-30553858D01*
X37156248Y-30659205D01*
X37279972Y-30806053D01*
X37439930Y-30999997D01*
X37641059Y-31246633D01*
X37836404Y-31487468D01*
X38057844Y-31760254D01*
X38235902Y-31977432D01*
X38377337Y-32146145D01*
X38488908Y-32273536D01*
X38577374Y-32366750D01*
X38649494Y-32432928D01*
X38712026Y-32479214D01*
X38771730Y-32512752D01*
X38831454Y-32539093D01*
X38927472Y-32578758D01*
X39084898Y-32644370D01*
X39290914Y-32730560D01*
X39532706Y-32831961D01*
X39797458Y-32943207D01*
X40013104Y-33033969D01*
X40550971Y-33258601D01*
X41146468Y-33503891D01*
X41785581Y-33764263D01*
X42454297Y-34034143D01*
X43138603Y-34307957D01*
X43824485Y-34580130D01*
X44497931Y-34845086D01*
X45144927Y-35097251D01*
X45751460Y-35331052D01*
X46303518Y-35540912D01*
X46504215Y-35616256D01*
X46762319Y-35713546D01*
X46995570Y-35802992D01*
X47193245Y-35880358D01*
X47344618Y-35941407D01*
X47438967Y-35981903D01*
X47465685Y-35996066D01*
X47454446Y-36037675D01*
X47402193Y-36132727D01*
X47315810Y-36270207D01*
X47202180Y-36439101D01*
X47085653Y-36604216D01*
X46931441Y-36816900D01*
X46755080Y-37057765D01*
X46562329Y-37319154D01*
X46358946Y-37593412D01*
X46150691Y-37872881D01*
X45943323Y-38149905D01*
X45742602Y-38416828D01*
X45554285Y-38665994D01*
X45384132Y-38889747D01*
X45237903Y-39080429D01*
X45121356Y-39230385D01*
X45040251Y-39331959D01*
X45000346Y-39377494D01*
X44998575Y-39378844D01*
X44965920Y-39374268D01*
X44896006Y-39341353D01*
X44786564Y-39278551D01*
X44635328Y-39184313D01*
X44440030Y-39057090D01*
X44198403Y-38895334D01*
X43908180Y-38697497D01*
X43567092Y-38462029D01*
X43172873Y-38187383D01*
X42723256Y-37872010D01*
X42215973Y-37514361D01*
X41648757Y-37112888D01*
X41019340Y-36666041D01*
X40843023Y-36540673D01*
X40456555Y-36267040D01*
X40102309Y-36018703D01*
X39785613Y-35799293D01*
X39511798Y-35612442D01*
X39286191Y-35461783D01*
X39114122Y-35350948D01*
X39000920Y-35283570D01*
X38990759Y-35278168D01*
X38910065Y-35252688D01*
X38864708Y-35262498D01*
X38817625Y-35319833D01*
X38731731Y-35430134D01*
X38615804Y-35581681D01*
X38478623Y-35762756D01*
X38328966Y-35961639D01*
X38175612Y-36166613D01*
X38027338Y-36365959D01*
X37892923Y-36547957D01*
X37781145Y-36700890D01*
X37700783Y-36813038D01*
X37672660Y-36853829D01*
X37518890Y-37083963D01*
X37567859Y-37712507D01*
X37578036Y-37839385D01*
X37594503Y-38039847D01*
X37616733Y-38307639D01*
X37644199Y-38636506D01*
X37676376Y-39020194D01*
X37712736Y-39452448D01*
X37752753Y-39927013D01*
X37795899Y-40437634D01*
X37841650Y-40978058D01*
X37889476Y-41542028D01*
X37938853Y-42123292D01*
X37978367Y-42587739D01*
X38028455Y-43176225D01*
X38077352Y-43750980D01*
X38124538Y-44305888D01*
X38169494Y-44834834D01*
X38211701Y-45331702D01*
X38250640Y-45790377D01*
X38285793Y-46204743D01*
X38316639Y-46568684D01*
X38342661Y-46876085D01*
X38363338Y-47120831D01*
X38378153Y-47296805D01*
X38385498Y-47384733D01*
X38431091Y-47935039D01*
X38300283Y-48149510D01*
X38236351Y-48246741D01*
X38133282Y-48394538D01*
X38000633Y-48579602D01*
X37847962Y-48788634D01*
X37684824Y-49008334D01*
X37644924Y-49061506D01*
X37518793Y-49228767D01*
X37363405Y-49434081D01*
X37184547Y-49669864D01*
X36988006Y-49928530D01*
X36779571Y-50202493D01*
X36565030Y-50484170D01*
X36350169Y-50765973D01*
X36140777Y-51040319D01*
X35942642Y-51299621D01*
X35761552Y-51536294D01*
X35603293Y-51742752D01*
X35473654Y-51911412D01*
X35378423Y-52034686D01*
X35323387Y-52104990D01*
X35313299Y-52117299D01*
X35292885Y-52101225D01*
X35272052Y-52023597D01*
X35259552Y-51937015D01*
X35250941Y-51834919D01*
X35239174Y-51658759D01*
X35224230Y-51408155D01*
X35206092Y-51082724D01*
X35184741Y-50682086D01*
X35160158Y-50205857D01*
X35132324Y-49653657D01*
X35101221Y-49025103D01*
X35066831Y-48319814D01*
X35029134Y-47537408D01*
X34988112Y-46677503D01*
X34943746Y-45739718D01*
X34896018Y-44723670D01*
X34844908Y-43628979D01*
X34790399Y-42455262D01*
X34732472Y-41202137D01*
X34690482Y-40290604D01*
X34466846Y-35429432D01*
X35099307Y-34120888D01*
X35288262Y-33730500D01*
X35480877Y-33333576D01*
X35673893Y-32936756D01*
X35864049Y-32546684D01*
X36048085Y-32169999D01*
X36222741Y-31813345D01*
X36384756Y-31483363D01*
X36530870Y-31186694D01*
X36657823Y-30929981D01*
X36762355Y-30719864D01*
X36841205Y-30562986D01*
X36891114Y-30465987D01*
X36908366Y-30435560D01*
X36924966Y-30430861D01*
X36953118Y-30445281D01*
G37*
G36*
X53583557Y-52909760D02*
G01*
X54393876Y-52910280D01*
X55171506Y-52911141D01*
X55900257Y-52912343D01*
X56531322Y-52913796D01*
X60329382Y-52924017D01*
X53559770Y-55109547D01*
X52692945Y-55104348D01*
X51826120Y-55099148D01*
X48488181Y-54011583D01*
X45150242Y-52924017D01*
X48941752Y-52913796D01*
X49608237Y-52912272D01*
X50339167Y-52911088D01*
X51118354Y-52910245D01*
X51929607Y-52909742D01*
X52756738Y-52909581D01*
X53583557Y-52909760D01*
G37*
G36*
X68630805Y-30431938D02*
G01*
X68684805Y-30531902D01*
X68767871Y-30692606D01*
X68877126Y-30908282D01*
X69009693Y-31173165D01*
X69162697Y-31481487D01*
X69333261Y-31827484D01*
X69518508Y-32205389D01*
X69715562Y-32609435D01*
X69859121Y-32905014D01*
X71079345Y-35421632D01*
X70896689Y-39445379D01*
X70839108Y-40712452D01*
X70784436Y-41912758D01*
X70732718Y-43045282D01*
X70684001Y-44109008D01*
X70638334Y-45102918D01*
X70595764Y-46025998D01*
X70556336Y-46877231D01*
X70520100Y-47655601D01*
X70487101Y-48360092D01*
X70457387Y-48989687D01*
X70431005Y-49543371D01*
X70408003Y-50020127D01*
X70388428Y-50418940D01*
X70372326Y-50738792D01*
X70371296Y-50758867D01*
X70355956Y-51061123D01*
X70342078Y-51341829D01*
X70330191Y-51589718D01*
X70320821Y-51793523D01*
X70314498Y-51941975D01*
X70311750Y-52023809D01*
X70311675Y-52030870D01*
X70300982Y-52111638D01*
X70277129Y-52142786D01*
X70247407Y-52111670D01*
X70173420Y-52021927D01*
X70059371Y-51878960D01*
X69909468Y-51688178D01*
X69727914Y-51454983D01*
X69518915Y-51184784D01*
X69286676Y-50882985D01*
X69035403Y-50554991D01*
X68769300Y-50206208D01*
X68711005Y-50129616D01*
X68441229Y-49774752D01*
X68185083Y-49437319D01*
X67946852Y-49122992D01*
X67730817Y-48837445D01*
X67541264Y-48586354D01*
X67382473Y-48375393D01*
X67258730Y-48210238D01*
X67174316Y-48096563D01*
X67133514Y-48040043D01*
X67131098Y-48036319D01*
X67125241Y-48010986D01*
X67122678Y-47957233D01*
X67123682Y-47871565D01*
X67128526Y-47750489D01*
X67137484Y-47590512D01*
X67150830Y-47388140D01*
X67168837Y-47139880D01*
X67191780Y-46842238D01*
X67219931Y-46491719D01*
X67253566Y-46084832D01*
X67292956Y-45618082D01*
X67338377Y-45087975D01*
X67390101Y-44491018D01*
X67448403Y-43823718D01*
X67513556Y-43082581D01*
X67563793Y-42513374D01*
X68044818Y-37070555D01*
X67378611Y-36163374D01*
X67204541Y-35926580D01*
X67045435Y-35710596D01*
X66907635Y-35523997D01*
X66797485Y-35375358D01*
X66721329Y-35273252D01*
X66685509Y-35226254D01*
X66684175Y-35224672D01*
X66676576Y-35220123D01*
X66662802Y-35221060D01*
X66639106Y-35230065D01*
X66601741Y-35249718D01*
X66546961Y-35282600D01*
X66471020Y-35331293D01*
X66370170Y-35398378D01*
X66240666Y-35486435D01*
X66078761Y-35598046D01*
X65880707Y-35735791D01*
X65642760Y-35902252D01*
X65361172Y-36100010D01*
X65032196Y-36331645D01*
X64652086Y-36599739D01*
X64217096Y-36906873D01*
X63723479Y-37255628D01*
X63235961Y-37600187D01*
X62840653Y-37879506D01*
X62462695Y-38146389D01*
X62107501Y-38397022D01*
X61780489Y-38627590D01*
X61487074Y-38834282D01*
X61232674Y-39013282D01*
X61022704Y-39160778D01*
X60862581Y-39272955D01*
X60757722Y-39346000D01*
X60714638Y-39375413D01*
X60612363Y-39440805D01*
X60190511Y-38891810D01*
X60059713Y-38721341D01*
X59890171Y-38499994D01*
X59691823Y-38240765D01*
X59474608Y-37956650D01*
X59248464Y-37660647D01*
X59023329Y-37365751D01*
X58927533Y-37240198D01*
X58728691Y-36979621D01*
X58544505Y-36738400D01*
X58380846Y-36524217D01*
X58243586Y-36344750D01*
X58138599Y-36207677D01*
X58071757Y-36120679D01*
X58049727Y-36092335D01*
X58042443Y-36072644D01*
X58055126Y-36049267D01*
X58093968Y-36019482D01*
X58165158Y-35980562D01*
X58274886Y-35929784D01*
X58429343Y-35864423D01*
X58634718Y-35781753D01*
X58897201Y-35679051D01*
X59222982Y-35553592D01*
X59606025Y-35407309D01*
X60147145Y-35199610D01*
X60747389Y-34966462D01*
X61391713Y-34713860D01*
X62065073Y-34447799D01*
X62752426Y-34174272D01*
X63438729Y-33899275D01*
X64108938Y-33628800D01*
X64748008Y-33368844D01*
X65340898Y-33125400D01*
X65552393Y-33037872D01*
X66901207Y-32478283D01*
X67739902Y-31443421D01*
X67941423Y-31195555D01*
X68127349Y-30968382D01*
X68291551Y-30769275D01*
X68427896Y-30605609D01*
X68530254Y-30484756D01*
X68592494Y-30414092D01*
X68608747Y-30398478D01*
X68630805Y-30431938D01*
G37*
G36*
X61819310Y-56007807D02*
G01*
X61866820Y-56020976D01*
X61866542Y-56026696D01*
X61824332Y-56064560D01*
X61721667Y-56143158D01*
X61564304Y-56258534D01*
X61358005Y-56406729D01*
X61108527Y-56583787D01*
X60821631Y-56785749D01*
X60503077Y-57008657D01*
X60158623Y-57248555D01*
X59794030Y-57501484D01*
X59415056Y-57763487D01*
X59027461Y-58030607D01*
X58637005Y-58298885D01*
X58249447Y-58564364D01*
X57870547Y-58823087D01*
X57506064Y-59071096D01*
X57161758Y-59304433D01*
X56843387Y-59519141D01*
X56556713Y-59711262D01*
X56307493Y-59876838D01*
X56101488Y-60011912D01*
X55944458Y-60112526D01*
X55842160Y-60174723D01*
X55800977Y-60194623D01*
X55748652Y-60171669D01*
X55643647Y-60108575D01*
X55497907Y-60013116D01*
X55323379Y-59893071D01*
X55170249Y-59783976D01*
X54909442Y-59594148D01*
X54646029Y-59400211D01*
X54388385Y-59208539D01*
X54144889Y-59025504D01*
X53923918Y-58857478D01*
X53733847Y-58710835D01*
X53583054Y-58591947D01*
X53479915Y-58507187D01*
X53432808Y-58462928D01*
X53431758Y-58461403D01*
X53415063Y-58412107D01*
X53411670Y-58332098D01*
X53422840Y-58212609D01*
X53449832Y-58044870D01*
X53493905Y-57820115D01*
X53556320Y-57529575D01*
X53582650Y-57411083D01*
X53651339Y-57104529D01*
X53705430Y-56867069D01*
X53747844Y-56689583D01*
X53781501Y-56562954D01*
X53809322Y-56478063D01*
X53834229Y-56425790D01*
X53859141Y-56397019D01*
X53886980Y-56382628D01*
X53914499Y-56375049D01*
X53967656Y-56369891D01*
X54095459Y-56361527D01*
X54291998Y-56350250D01*
X54551360Y-56336356D01*
X54867635Y-56320137D01*
X55234911Y-56301889D01*
X55647277Y-56281904D01*
X56098820Y-56260478D01*
X56583631Y-56237903D01*
X57095798Y-56214475D01*
X57593063Y-56192106D01*
X58132695Y-56167967D01*
X58655682Y-56144453D01*
X59155532Y-56121864D01*
X59625751Y-56100498D01*
X60059847Y-56080653D01*
X60451327Y-56062629D01*
X60793698Y-56046724D01*
X61080466Y-56033238D01*
X61305140Y-56022468D01*
X61461226Y-56014714D01*
X61534752Y-56010739D01*
X61705159Y-56004228D01*
X61819310Y-56007807D01*
G37*
%TD*%
M02*
