%TF.GenerationSoftware,KiCad,Pcbnew,7.0.2*%
%TF.CreationDate,2023-06-11T16:55:18-04:00*%
%TF.ProjectId,Robocat Pin,526f626f-6361-4742-9050-696e2e6b6963,rev?*%
%TF.SameCoordinates,Original*%
%TF.FileFunction,Copper,L3,Inr*%
%TF.FilePolarity,Positive*%
%FSLAX46Y46*%
G04 Gerber Fmt 4.6, Leading zero omitted, Abs format (unit mm)*
G04 Created by KiCad (PCBNEW 7.0.2) date 2023-06-11 16:55:18*
%MOMM*%
%LPD*%
G01*
G04 APERTURE LIST*
%TA.AperFunction,ViaPad*%
%ADD10C,0.800000*%
%TD*%
%TA.AperFunction,Conductor*%
%ADD11C,0.250000*%
%TD*%
G04 APERTURE END LIST*
D10*
%TO.N,*%
X70713600Y-35661600D03*
%TO.N,/gnd*%
X65328800Y-51765200D03*
X53746400Y-43078400D03*
X64414400Y-53695600D03*
X53695600Y-41148000D03*
X41706800Y-53390800D03*
X36525200Y-53390800D03*
X51968400Y-43078400D03*
X39166800Y-53390800D03*
X67614800Y-51765200D03*
X52019200Y-41148000D03*
%TO.N,Net-(C2-Pad1)*%
X34835222Y-35601431D03*
X40538400Y-51714400D03*
X68884800Y-53594000D03*
X37998400Y-51714400D03*
X63042800Y-51765200D03*
X66585500Y-53594000D03*
X52832000Y-56134000D03*
X42722800Y-51714400D03*
%TD*%
D11*
%TO.N,/gnd*%
X65328800Y-51765200D02*
X64058800Y-53035200D01*
X52019200Y-41148000D02*
X51206400Y-41960800D01*
X65328800Y-51765200D02*
X67614800Y-51765200D01*
X64414400Y-53695600D02*
X64262000Y-53695600D01*
X64262000Y-53695600D02*
X57365300Y-60592300D01*
X53746400Y-41198800D02*
X53695600Y-41148000D01*
X41706800Y-53390800D02*
X39166800Y-53390800D01*
X44723300Y-60592300D02*
X37521800Y-53390800D01*
X51968400Y-42875200D02*
X51968400Y-43078400D01*
X53746400Y-43078400D02*
X53314600Y-43510200D01*
X53314600Y-43510200D02*
X53314600Y-50749200D01*
X57365300Y-60592300D02*
X44723300Y-60592300D01*
X51206400Y-41960800D02*
X51206400Y-48641000D01*
X51206400Y-48641000D02*
X53314600Y-50749200D01*
X53695600Y-41148000D02*
X51968400Y-42875200D01*
X37521800Y-53390800D02*
X36525200Y-53390800D01*
X64414400Y-53695600D02*
X62738000Y-53695600D01*
X59791600Y-50749200D02*
X53314600Y-50749200D01*
X42062400Y-53035200D02*
X41706800Y-53390800D01*
X53746400Y-43078400D02*
X53746400Y-41198800D01*
X64058800Y-53035200D02*
X42062400Y-53035200D01*
X39166800Y-53390800D02*
X36525200Y-53390800D01*
X62738000Y-53695600D02*
X59791600Y-50749200D01*
%TD*%
M02*
