%TF.GenerationSoftware,KiCad,Pcbnew,(6.0.5)*%
%TF.CreationDate,2023-05-26T14:33:47-04:00*%
%TF.ProjectId,Robocat Pin,526f626f-6361-4742-9050-696e2e6b6963,rev?*%
%TF.SameCoordinates,Original*%
%TF.FileFunction,Copper,L2,Inr*%
%TF.FilePolarity,Positive*%
%FSLAX46Y46*%
G04 Gerber Fmt 4.6, Leading zero omitted, Abs format (unit mm)*
G04 Created by KiCad (PCBNEW (6.0.5)) date 2023-05-26 14:33:47*
%MOMM*%
%LPD*%
G01*
G04 APERTURE LIST*
%TA.AperFunction,ViaPad*%
%ADD10C,0.800000*%
%TD*%
%TA.AperFunction,Conductor*%
%ADD11C,0.250000*%
%TD*%
G04 APERTURE END LIST*
D10*
%TO.N,Net-(C2-Pad1)*%
X33000982Y-36357264D03*
X26308400Y-61798200D03*
X69246400Y-71247000D03*
X27502200Y-48971200D03*
X56184800Y-57937400D03*
X52959000Y-77730000D03*
X48264299Y-59143300D03*
X38709600Y-74910600D03*
%TD*%
D11*
%TO.N,Net-(C2-Pad1)*%
X27502200Y-48971200D02*
X27502200Y-40890846D01*
X26308400Y-50165000D02*
X27502200Y-48971200D01*
X60242800Y-77730000D02*
X52959000Y-77730000D01*
X27502200Y-40890846D02*
X28467400Y-40890846D01*
X69246400Y-71247000D02*
X66725800Y-71247000D01*
X54978900Y-59143300D02*
X48264299Y-59143300D01*
X69246400Y-70999000D02*
X69246400Y-71247000D01*
X41529000Y-77730000D02*
X38709600Y-74910600D01*
X28467400Y-40890846D02*
X33000982Y-36357264D01*
X56184800Y-57937400D02*
X54978900Y-59143300D01*
X56184800Y-57937400D02*
X69246400Y-70999000D01*
X38709600Y-74910600D02*
X37344000Y-74910600D01*
X26308400Y-63875000D02*
X26308400Y-61798200D01*
X52959000Y-77730000D02*
X41529000Y-77730000D01*
X37344000Y-74910600D02*
X26308400Y-63875000D01*
X26308400Y-61798200D02*
X26308400Y-50165000D01*
X66725800Y-71247000D02*
X60242800Y-77730000D01*
%TD*%
M02*
