%TF.GenerationSoftware,KiCad,Pcbnew,(6.0.5)*%
%TF.CreationDate,2023-06-02T13:35:43-04:00*%
%TF.ProjectId,Robocat Pin,526f626f-6361-4742-9050-696e2e6b6963,rev?*%
%TF.SameCoordinates,Original*%
%TF.FileFunction,Copper,L3,Inr*%
%TF.FilePolarity,Positive*%
%FSLAX46Y46*%
G04 Gerber Fmt 4.6, Leading zero omitted, Abs format (unit mm)*
G04 Created by KiCad (PCBNEW (6.0.5)) date 2023-06-02 13:35:43*
%MOMM*%
%LPD*%
G01*
G04 APERTURE LIST*
%TA.AperFunction,ViaPad*%
%ADD10C,0.800000*%
%TD*%
%TA.AperFunction,Conductor*%
%ADD11C,0.250000*%
%TD*%
G04 APERTURE END LIST*
D10*
%TO.N,/gnd*%
X52959000Y-72130000D03*
X60147200Y-50749200D03*
X47782161Y-60592300D03*
X60325000Y-47625000D03*
X38709600Y-69310600D03*
X33102200Y-48971200D03*
X71691800Y-52954400D03*
X31908400Y-61798200D03*
X63646400Y-71247000D03*
X50190400Y-47625000D03*
%TO.N,Net-(C2-Pad1)*%
X33000982Y-36357264D03*
X26308400Y-61798200D03*
X69246400Y-71247000D03*
X27502200Y-48971200D03*
X56184800Y-57937400D03*
X52959000Y-77730000D03*
X48264299Y-59143300D03*
X38709600Y-74910600D03*
%TD*%
D11*
%TO.N,/gnd*%
X52959000Y-72130000D02*
X62763400Y-72130000D01*
X47782161Y-60592300D02*
X44723300Y-60592300D01*
X33102200Y-60604400D02*
X31908400Y-61798200D01*
X60325000Y-47625000D02*
X66375100Y-47625000D01*
X33102200Y-48971200D02*
X33102200Y-60604400D01*
X66375100Y-47625000D02*
X66375100Y-47637700D01*
X38709600Y-69310600D02*
X50139600Y-69310600D01*
X60325000Y-50571400D02*
X60147200Y-50749200D01*
X53314600Y-50749200D02*
X53314600Y-55117613D01*
X53314600Y-55117613D02*
X47839913Y-60592300D01*
X62763400Y-72130000D02*
X63646400Y-71247000D01*
X31908400Y-61798200D02*
X31908400Y-62509400D01*
X60147200Y-50749200D02*
X53314600Y-50749200D01*
X50139600Y-69310600D02*
X52959000Y-72130000D01*
X44723300Y-60592300D02*
X33102200Y-48971200D01*
X31908400Y-62509400D02*
X38709600Y-69310600D01*
X53314600Y-50749200D02*
X50190400Y-47625000D01*
X60325000Y-47625000D02*
X60325000Y-50571400D01*
X66375100Y-47637700D02*
X71691800Y-52954400D01*
X47839913Y-60592300D02*
X47782161Y-60592300D01*
%TD*%
M02*
