%TF.GenerationSoftware,KiCad,Pcbnew,7.0.2*%
%TF.CreationDate,2023-06-11T16:55:18-04:00*%
%TF.ProjectId,Robocat Pin,526f626f-6361-4742-9050-696e2e6b6963,rev?*%
%TF.SameCoordinates,Original*%
%TF.FileFunction,Paste,Bot*%
%TF.FilePolarity,Positive*%
%FSLAX46Y46*%
G04 Gerber Fmt 4.6, Leading zero omitted, Abs format (unit mm)*
G04 Created by KiCad (PCBNEW 7.0.2) date 2023-06-11 16:55:18*
%MOMM*%
%LPD*%
G01*
G04 APERTURE LIST*
G04 Aperture macros list*
%AMRoundRect*
0 Rectangle with rounded corners*
0 $1 Rounding radius*
0 $2 $3 $4 $5 $6 $7 $8 $9 X,Y pos of 4 corners*
0 Add a 4 corners polygon primitive as box body*
4,1,4,$2,$3,$4,$5,$6,$7,$8,$9,$2,$3,0*
0 Add four circle primitives for the rounded corners*
1,1,$1+$1,$2,$3*
1,1,$1+$1,$4,$5*
1,1,$1+$1,$6,$7*
1,1,$1+$1,$8,$9*
0 Add four rect primitives between the rounded corners*
20,1,$1+$1,$2,$3,$4,$5,0*
20,1,$1+$1,$4,$5,$6,$7,0*
20,1,$1+$1,$6,$7,$8,$9,0*
20,1,$1+$1,$8,$9,$2,$3,0*%
%AMRotRect*
0 Rectangle, with rotation*
0 The origin of the aperture is its center*
0 $1 length*
0 $2 width*
0 $3 Rotation angle, in degrees counterclockwise*
0 Add horizontal line*
21,1,$1,$2,0,0,$3*%
G04 Aperture macros list end*
%ADD10RoundRect,0.140000X-0.170000X0.140000X-0.170000X-0.140000X0.170000X-0.140000X0.170000X0.140000X0*%
%ADD11R,1.550000X0.600000*%
%ADD12RoundRect,0.250000X-1.500000X-0.550000X1.500000X-0.550000X1.500000X0.550000X-1.500000X0.550000X0*%
%ADD13R,0.800000X0.650000*%
%ADD14R,0.650000X0.800000*%
%ADD15RoundRect,0.250000X1.500000X0.550000X-1.500000X0.550000X-1.500000X-0.550000X1.500000X-0.550000X0*%
%ADD16R,1.151300X1.250000*%
%ADD17RoundRect,0.381000X-0.381000X0.762000X-0.381000X-0.762000X0.381000X-0.762000X0.381000X0.762000X0*%
%ADD18R,6.100000X2.400000*%
%ADD19RoundRect,0.250000X0.550000X-1.500000X0.550000X1.500000X-0.550000X1.500000X-0.550000X-1.500000X0*%
%ADD20RotRect,0.800000X1.600000X45.000000*%
G04 APERTURE END LIST*
D10*
%TO.C,C1*%
X57861200Y-50751800D03*
X57861200Y-51711800D03*
%TD*%
D11*
%TO.C,U1*%
X49547800Y-60477400D03*
X49547800Y-59207400D03*
X49547800Y-57937400D03*
X49547800Y-56667400D03*
X54947800Y-56667400D03*
X54947800Y-57937400D03*
X54947800Y-59207400D03*
X54947800Y-60477400D03*
%TD*%
D12*
%TO.C,C4*%
X27502200Y-48971200D03*
X33102200Y-48971200D03*
%TD*%
D13*
%TO.C,R5*%
X49885600Y-51600400D03*
X49885600Y-50050400D03*
%TD*%
%TO.C,R3*%
X39020782Y-33245464D03*
X39020782Y-34795464D03*
%TD*%
%TO.C,R2*%
X37191982Y-35810864D03*
X37191982Y-37360864D03*
%TD*%
D14*
%TO.C,R1*%
X36289982Y-42351664D03*
X37839982Y-42351664D03*
%TD*%
D15*
%TO.C,C6*%
X69246400Y-71247000D03*
X63646400Y-71247000D03*
%TD*%
D16*
%TO.C,D1*%
X49250650Y-47625000D03*
X45999350Y-47625000D03*
%TD*%
D14*
%TO.C,R4*%
X34725382Y-38795664D03*
X36275382Y-38795664D03*
%TD*%
D17*
%TO.C,BT1*%
X71691800Y-52954400D03*
D18*
X71678800Y-41300400D03*
X71551800Y-64541400D03*
%TD*%
D12*
%TO.C,C5*%
X26308400Y-61798200D03*
X31908400Y-61798200D03*
%TD*%
D19*
%TO.C,C2*%
X38709600Y-74910600D03*
X38709600Y-69310600D03*
%TD*%
D13*
%TO.C,R6*%
X52400200Y-51524200D03*
X52400200Y-49974200D03*
%TD*%
D19*
%TO.C,C3*%
X52959000Y-77730000D03*
X52959000Y-72130000D03*
%TD*%
D20*
%TO.C,SW1*%
X30037498Y-36087856D03*
X31384536Y-34740818D03*
X34258218Y-31867136D03*
X35605256Y-30520098D03*
X37221702Y-32136544D03*
X35874664Y-33483582D03*
X33000982Y-36357264D03*
X31653944Y-37704302D03*
%TD*%
D16*
%TO.C,D2*%
X59395410Y-47625000D03*
X56144110Y-47625000D03*
%TD*%
M02*
